ply
format ascii 1.0
element vertex 256
comment vertices
property float x
property float y
property float z
end_header
-0.184352725744247437 0.0726526826620101929 0.687570154666900635
0.112555265426635742 0.713510274887084961 0.64198148250579834
0.161606013774871826 -0.342321932315826416 0.532179117202758789
0.157081693410873413 -0.345077872276306152 0.523622095584869385
0.184920921921730042 -0.330311775207519531 0.547234177589416504
-0.449479430913925171 -0.349666714668273926 0.516375124454498291
0.859992146492004395 -0.233952790498733521 0.523849368095397949
0.823031604290008545 -0.246169745922088623 0.542958438396453857
0.82330012321472168 -0.249538615345954895 0.544245004653930664
0.808005630970001221 -0.261150062084197998 0.536239862442016602
0.81458514928817749 -0.243804782629013062 0.544184744358062744
0.821668386459350586 -0.243270382285118103 0.552279531955718994
-0.773823142051696777 0.856985092163085938 0.53521960973739624
-0.772625744342803955 0.852205276489257812 0.543705165386199951
0.972897469997406006 0.296602755784988403 0.564786136150360107
0.814099371433258057 -0.238757357001304626 0.549506545066833496
0.810420453548431396 -0.244541361927986145 0.554849803447723389
0.844048857688903809 -0.223549380898475647 0.530820310115814209
0.849442839622497559 -0.22068236768245697 0.533269166946411133
0.943805277347564697 1.04735100269317627 0.620593011379241943
0.942993402481079102 1.04756498336791992 0.620245873928070068
1.06440675258636475 0.781403183937072754 0.450965583324432373
0.846742391586303711 -0.540688633918762207 0.57837146520614624
0.946228325366973877 1.05277085304260254 0.623306334018707275
0.84022212028503418 -0.771906852722167969 0.649761795997619629
-0.767805814743041992 1.23981356620788574 0.65260159969329834
0.84964287281036377 -0.782391250133514404 0.663186073303222656
1.02366173267364502 -0.592010080814361572 0.70622330904006958
-1.02977395057678223 -0.83347320556640625 0.51537775993347168
0.888292551040649414 -0.783252120018005371 0.610986649990081787
0.0176611244678497314 1.85725677013397217 0.620691955089569092
0.984778285026550293 -0.67554008960723877 0.539519071578979492
0.95285874605178833 -0.801847755908966064 0.494778931140899658
1.32530331611633301 -0.66437685489654541 0.528127551078796387
-1.16606640815734863 1.19793164730072021 0.634060800075531006
0.64032900333404541 -1.2504962682723999 0.594689905643463135
1.02824985980987549 -0.773683309555053711 0.581224501132965088
-1.52016520500183105 0.738635599613189697 0.523585498332977295
-1.53859007358551025 0.921321868896484375 0.556781113147735596
0.0282913073897361755 1.88182938098907471 0.638346433639526367
-1.07654142379760742 -0.989855408668518066 0.892647862434387207
0.0340509451925754547 1.88284075260162354 0.645134150981903076
1.55384314060211182 0.61472398042678833 0.550495445728302002
0.0304279979318380356 1.88761484622955322 0.637476980686187744
0.0309236831963062286 1.88927376270294189 0.637939214706420898
-1.07870447635650635 -0.996695101261138916 0.72222214937210083
-0.988099396228790283 -0.968936562538146973 0.379720181226730347
0.630355358123779297 1.7408602237701416 0.855780482292175293
1.36308372020721436 -0.617400407791137695 0.523402512073516846
-1.07652044296264648 -0.855128586292266846 0.527758419513702393
-1.04087650775909424 -0.877960085868835449 0.547290265560150146
0.551376700401306152 -1.39761674404144287 0.505984246730804443
0.542696774005889893 -1.41529703140258789 0.498577594757080078
-1.49830818176269531 0.700582206249237061 0.616650283336639404
1.22917044162750244 -0.775548815727233887 0.512488067150115967
-1.45104742050170898 1.34979426860809326 0.635926902294158936
0.637272417545318604 1.75062108039855957 0.817412197589874268
-1.0767439603805542 -1.00656437873840332 0.525360643863677979
-1.54042339324951172 0.915946424007415771 0.507376790046691895
1.48076951503753662 -0.571523487567901611 0.545145809650421143
1.51907515525817871 -0.559625327587127686 0.557990312576293945
0.0311679989099502563 1.91994976997375488 0.63843834400177002
-1.55090761184692383 0.911559462547302246 0.555489122867584229
-0.0363631993532180786 1.96251475811004639 0.617889881134033203
-1.17515707015991211 1.56342029571533203 0.544554710388183594
1.55337953567504883 -0.535790979862213135 0.568785369396209717
1.47602212429046631 -0.721598923206329346 0.496565580368041992
0.534308195114135742 -1.4374997615814209 0.465966224670410156
-1.48468303680419922 1.3600839376449585 0.63509601354598999
0.772251904010772705 1.86890625953674316 0.581513464450836182
1.52386593818664551 -0.564091145992279053 0.557754456996917725
-1.57606542110443115 0.735445559024810791 0.555826663970947266
-1.0331418514251709 -1.32406866550445557 0.457808941602706909
1.40833878517150879 -0.879873991012573242 0.518198370933532715
1.4796212911605835 -0.589971423149108887 0.54764854907989502
-1.48251307010650635 1.36411583423614502 0.635041654109954834
-1.26680958271026611 -1.18479490280151367 0.436101615428924561
-0.779565155506134033 -1.51285576820373535 0.622154057025909424
-2.0861198902130127 0.592197656631469727 0.697504878044128418
-1.48548746109008789 1.37586569786071777 0.652299344539642334
-1.15295588970184326 -1.24783074855804443 0.580498993396759033
1.44173324108123779 -1.08331763744354248 0.50965803861618042
1.45904958248138428 -1.01933777332305908 0.495807021856307983
-1.83340811729431152 1.01087093353271484 0.575404345989227295
0.722676098346710205 2.08643460273742676 0.633719682693481445
-1.54568135738372803 1.33852863311767578 0.610672473907470703
-1.88332986831665039 0.963959038257598877 0.549072325229644775
1.07298898696899414 -1.52633213996887207 0.596108019351959229
1.42831826210021973 -1.08618378639221191 0.520796895027160645
1.5086524486541748 -0.883932054042816162 0.587507963180541992
1.5103449821472168 -0.882139265537261963 0.586222827434539795
1.43068599700927734 -1.12485456466674805 0.533072292804718018
0.773115813732147217 2.15257787704467773 0.619922101497650146
0.781649112701416016 2.28249073028564453 0.534004807472229004
1.472953200340271 -1.17028391361236572 0.580638766288757324
-2.20682048797607422 0.139866620302200317 0.695460259914398193
-2.1714015007019043 0.633777439594268799 0.728819370269775391
-2.22297859191894531 0.0374044626951217651 0.643818378448486328
-1.34949707984924316 -1.48842120170593262 0.52759552001953125
1.24763059616088867 2.22140765190124512 0.55587393045425415
1.24238526821136475 -1.64512121677398682 0.546346604824066162
1.54225099086761475 -1.16391170024871826 0.659975588321685791
-2.07534241676330566 1.1017000675201416 0.555172204971313477
1.43954932689666748 1.96405589580535889 0.658327996730804443
1.84579586982727051 -0.841694951057434082 0.628267467021942139
1.26229012012481689 -1.66739869117736816 0.651740312576293945
-2.15831851959228516 0.646261274814605713 0.734935224056243896
-0.167155295610427856 2.4747474193572998 0.522893249988555908
1.68847692012786865 -0.956791460514068604 0.670656800270080566
-0.183791607618331909 2.49099946022033691 0.565097212791442871
-1.73464620113372803 1.76975083351135254 0.618753552436828613
1.42396759986877441 2.03281426429748535 0.659624874591827393
1.41849327087402344 2.02857041358947754 0.659615516662597656
1.8157191276550293 -0.953549802303314209 0.568560600280761719
-1.02942752838134766 -1.89815962314605713 0.418229818344116211
0.0330446995794773102 2.55273962020874023 0.638284981250762939
-1.19830584526062012 -1.80396163463592529 0.266949564218521118
-2.21308469772338867 1.16255319118499756 0.601263880729675293
0.699378728866577148 -2.04764819145202637 0.146338596940040588
-1.97656905651092529 -1.15095949172973633 0.437343180179595947
0.764432966709136963 2.48890066146850586 0.681848406791687012
-2.24961566925048828 0.690439701080322266 0.741903603076934814
-0.824938654899597168 2.75442814826965332 0.653783261775970459
1.21529006958007812 2.37523937225341797 0.679995059967041016
0.236752539873123169 -2.23117780685424805 0.482475399971008301
-0.554801702499389648 2.61233139038085938 0.650873303413391113
-1.02445900440216064 -1.97613799571990967 0.481481730937957764
-1.48811745643615723 -1.62772750854492188 0.520425319671630859
0.231231808662414551 -2.23220157623291016 0.490417838096618652
1.31489944458007812 -1.71473014354705811 0.486190199851989746
1.2431025505065918 2.44185328483581543 0.677898168563842773
1.24065744876861572 2.44390463829040527 0.679513216018676758
1.23412513732910156 2.44863319396972656 0.682067751884460449
-1.02475321292877197 2.51773786544799805 0.588921725749969482
1.23098981380462646 2.45012378692626953 0.681513369083404541
-1.48789346218109131 2.2915959358215332 0.628655433654785156
-2.22857189178466797 1.48617589473724365 0.609563350677490234
-1.48590588569641113 2.29158782958984375 0.625110447406768799
0.248616352677345276 -2.24045538902282715 0.485514670610427856
1.39503669738769531 -1.79723680019378662 0.592828869819641113
-1.22820043563842773 -1.94460403919219971 0.217033803462982178
-1.46327328681945801 2.31881284713745117 0.666219949722290039
-2.21795082092285156 1.63373398780822754 0.582362174987792969
-1.49195230007171631 2.28353571891784668 0.607338488101959229
1.65644073486328125 -1.49850034713745117 0.750936806201934814
1.58354806900024414 2.31595683097839355 0.611910700798034668
1.13254523277282715 2.57042717933654785 0.631886184215545654
1.71407687664031982 2.2621157169342041 0.616096019744873047
1.22373831272125244 2.43871307373046875 0.674611926078796387
0.604901492595672607 -2.49325180053710938 0.419585973024368286
0.011817440390586853 3.04236245155334473 0.672272145748138428
-0.872477531433105469 2.89730238914489746 0.679559588432312012
-1.48361921310424805 2.32513093948364258 0.660652995109558105
-0.486022323369979858 2.88600993156433105 0.582738637924194336
1.22054147720336914 2.4882047176361084 0.675890564918518066
0.000208172481507062912 3.12163186073303223 0.698944687843322754
-0.000407651998102664948 3.12935495376586914 0.705350935459136963
-2.3160700798034668 -1.35937237739562988 0.341074168682098389
-1.47715198993682861 2.56570816040039062 0.57412254810333252
-0.865576028823852539 2.89740276336669922 0.6746864914894104
1.48583459854125977 2.75338053703308105 0.552569389343261719
1.47742223739624023 -2.37968063354492188 0.586257815361022949
-2.16506314277648926 2.13456201553344727 0.615409910678863525
1.25600194931030273 2.8665165901184082 0.726823687553405762
1.23999869823455811 2.69889712333679199 0.716892600059509277
-2.17794966697692871 -1.84786808490753174 0.588576257228851318
1.46457576751708984 -2.35014438629150391 0.592186510562896729
-2.1364295482635498 2.22481250762939453 0.745005011558532715
-1.502480149269104 2.68587255477905273 0.466682583093643188
1.8835902214050293 -2.09083843231201172 0.966536521911621094
-2.43294978141784668 -1.47321093082427979 0.330348461866378784
1.47629141807556152 -2.39004397392272949 0.579019486904144287
-1.64622628688812256 2.68500709533691406 0.500373423099517822
-3.00830197334289551 -0.0562124885618686676 0.649355828762054443
-0.866640865802764893 2.87691879272460938 0.681509315967559814
-0.00321489851921796799 3.23559713363647461 0.723221898078918457
1.58405947685241699 2.91555404663085938 0.578669607639312744
0.724487841129302979 3.13150763511657715 0.570711255073547363
1.28631162643432617 3.02492117881774902 0.627872943878173828
1.53353476524353027 2.93093347549438477 0.531456351280212402
1.5811614990234375 2.92960333824157715 0.578272461891174316
-1.86333978176116943 2.69896960258483887 0.551591336727142334
1.23484337329864502 3.0671379566192627 0.728538036346435547
1.20779430866241455 3.0919501781463623 0.709624052047729492
1.20862221717834473 3.09276366233825684 0.718772351741790771
-0.0137415900826454163 3.24495434761047363 0.730946838855743408
-1.1920391321182251 -2.67528915405273438 0.515447556972503662
1.55190491676330566 2.9645378589630127 0.551020622253417969
1.45669651031494141 -2.39293742179870605 0.571341395378112793
1.47231006622314453 2.93834042549133301 0.660226583480834961
0.763332664966583252 -2.83923149108886719 0.608899116516113281
-2.9627683162689209 1.25939369201660156 0.916425526142120361
-2.69695138931274414 -1.38649988174438477 0.396060347557067871
-2.98928213119506836 1.25387692451477051 0.70078432559967041
-3.00725150108337402 1.21698427200317383 0.717774271965026855
-1.20791816711425781 -2.74449658393859863 0.601338982582092285
1.80378687381744385 -2.34365749359130859 0.605373203754425049
-1.25506007671356201 -2.73858118057250977 0.401455819606781006
0.851530969142913818 3.32880496978759766 0.59189915657043457
-1.68034815788269043 2.795867919921875 0.609401166439056396
-0.0614723116159439087 3.36235666275024414 0.748366236686706543
1.61939644813537598 3.06192660331726074 0.579858481884002686
1.60929393768310547 3.03505039215087891 0.607720613479614258
-1.23224329948425293 -2.83543133735656738 0.473665595054626465
-3.1370549201965332 1.19567811489105225 0.719310939311981201
-3.08863472938537598 1.34313392639160156 0.722091972827911377
-0.0554482787847518921 3.41033196449279785 0.703708469867706299
-2.21992373466491699 2.62783718109130859 0.750105381011962891
-2.73642230033874512 1.84033620357513428 0.615089476108551025
-1.23597276210784912 -2.78220391273498535 0.65424501895904541
-2.21418023109436035 2.63381695747375488 0.746445655822753906
-2.21659064292907715 2.63424205780029297 0.748804986476898193
-1.2376854419708252 -2.80389070510864258 0.784063220024108887
-1.32100188732147217 -2.84921455383300781 0.219616249203681946
-1.24378252029418945 -2.84996581077575684 0.607428431510925293
-1.23605144023895264 -2.8586428165435791 0.766782104969024658
-1.76611125469207764 2.95008635520935059 0.480651021003723145
1.52538657188415527 -2.72420191764831543 0.367266535758972168
-2.86911892890930176 2.05953741073608398 0.655551493167877197
-3.32874655723571777 0.919322669506072998 0.840032219886779785
-1.99614691734313965 -2.50606322288513184 0.504264533519744873
-1.453879714012146 3.30664777755737305 0.555284023284912109
0.805596590042114258 3.53306007385253906 0.578864753246307373
1.59305381774902344 -2.84137368202209473 0.675660550594329834
-3.28950142860412598 1.35929882526397705 0.86652982234954834
-2.23031067848205566 2.63134551048278809 0.619243979454040527
1.1889641284942627 3.53554487228393555 0.587071716785430908
-3.16879630088806152 1.88923084735870361 0.628928184509277344
-1.80316579341888428 3.43297171592712402 0.324120044708251953
-2.09316730499267578 3.24466300010681152 0.551240086555480957
-0.252203404903411865 3.87773013114929199 0.496532350778579712
0.911355018615722656 3.72501969337463379 0.643919706344604492
-2.79091691970825195 2.63295769691467285 0.490027278661727905
-2.32524442672729492 3.10167956352233887 0.338570535182952881
-0.757445871829986572 3.85418510437011719 0.429084479808807373
0.679587244987487793 3.86222410202026367 0.739115118980407715
0.835274398326873779 3.8717353343963623 0.686300575733184814
-2.16014981269836426 3.34040379524230957 0.509538948535919189
0.850427985191345215 4.03036355972290039 0.642929196357727051
1.99602413177490234 -3.27496242523193359 0.940224170684814453
2.44613289833068848 -2.91294240951538086 0.651746809482574463
-1.93902671337127686 3.83802151679992676 0.66887056827545166
-2.06174325942993164 3.83645200729370117 0.755521595478057861
-1.94958209991455078 3.9128260612487793 0.876564681529998779
2.4633030891418457 -3.20126175880432129 0.823077917098999023
-1.95576667785644531 3.90633749961853027 0.851669669151306152
0.313667327165603638 -4.02867460250854492 0.315238535404205322
-0.98265606164932251 4.31896162033081055 0.721794724464416504
1.01297485828399658 -4.00714921951293945 0.72550046443939209
0.496305793523788452 -4.08061361312866211 0.801244199275970459
0.84148406982421875 -4.07234477996826172 0.842531383037567139
1.02440512180328369 -4.03183126449584961 0.673071682453155518
1.04134786128997803 -4.04657649993896484 0.651190578937530518
1.09478461742401123 -4.0635223388671875 0.648237287998199463
1.85764682292938232 -3.98098492622375488 0.928116440773010254
1.57019233703613281 -4.23315334320068359 0.674763143062591553
