ply
format ascii 1.0
element vertex 256
comment vertices
property float x
property float y
property float z
end_header
-1.43295514583587646 2.81165075302124023 0.555961489677429199
0.736314296722412109 2.90342450141906738 0.776745617389678955
1.66314125061035156 -2.89080357551574707 0.496385902166366577
-1.5053020715713501 2.84817051887512207 0.513102829456329346
1.18386495113372803 3.66362762451171875 0.780257284641265869
-1.27527368068695068 -2.8524630069732666 0.344105750322341919
-0.00306892627850174904 3.0262916088104248 0.680219829082489014
1.27684664726257324 -3.62581038475036621 0.183238744735717773
-1.4543536901473999 1.41516244411468506 0.621902525424957275
-0.00299118272960186005 3.03737115859985352 0.682144224643707275
-2.32101178169250488 -1.9917680025100708 0.560775458812713623
-1.26648843288421631 -2.7906343936920166 0.320104867219924927
-1.6465752124786377 1.61696362495422363 0.671550095081329346
-0.861547410488128662 1.67119705677032471 0.582792043685913086
1.74933671951293945 -2.75579094886779785 0.55723118782043457
-0.644604921340942383 -3.16199469566345215 0.642739415168762207
0.724950730800628662 -2.87027978897094727 0.50994032621383667
-3.10233592987060547 2.06778955459594727 0.502394437789916992
0.684871077537536621 3.32985234260559082 0.589763879776000977
-1.21407961845397949 -2.88315272331237793 0.506561338901519775
1.82710671424865723 -2.8525550365447998 0.550763487815856934
-1.21204924583435059 -2.84757351875305176 0.673318266868591309
1.28477227687835693 2.84846973419189453 0.773125886917114258
-1.2109677791595459 -2.84584403038024902 0.674401462078094482
1.55998373031616211 2.83028340339660645 0.605100512504577637
-1.33081018924713135 -2.82499146461486816 0.204731538891792297
-1.63180017471313477 1.9880526065826416 0.609954595565795898
0.855782449245452881 2.39326763153076172 0.718211829662322998
-2.60970354080200195 2.35182428359985352 0.621428072452545166
-2.03362774848937988 1.78690910339355469 0.664253473281860352
1.16427123546600342 2.44341325759887695 0.721810817718505859
-1.22375476360321045 -2.87234830856323242 0.576172411441802979
0.270110845565795898 -2.29024577140808105 0.442699193954467773
1.56642603874206543 -1.88707494735717773 0.75965350866317749
-2.41474103927612305 -1.94402265548706055 0.575280427932739258
1.50277972221374512 1.89708614349365234 0.643441557884216309
1.18866646289825439 2.49803709983825684 0.652885198593139648
-0.00137303769588470459 2.68553423881530762 0.657238960266113281
-0.848180592060089111 2.82028102874755859 0.691089749336242676
1.01302528381347656 -2.14773368835449219 0.369545787572860718
-1.54006445407867432 2.26101088523864746 0.605725944042205811
0.259423792362213135 -2.29900264739990234 0.433480441570281982
-1.58310890197753906 2.84823465347290039 0.618417799472808838
-1.50606465339660645 2.281005859375 0.62682420015335083
1.18452227115631104 2.50004386901855469 0.663319528102874756
-1.3754417896270752 2.69118309020996094 0.438130736351013184
0.69601064920425415 -2.83718132972717285 0.520043373107910156
0.285129040479660034 -3.40377354621887207 0.519434571266174316
-0.844702243804931641 2.82067418098449707 0.692091286182403564
1.51300787925720215 -2.43844151496887207 0.602363049983978271
-0.846281766891479492 2.82474517822265625 0.689638137817382812
0.0132045764476060867 2.72533512115478516 0.647157430648803711
1.19036293029785156 2.50066542625427246 0.683793365955352783
1.17506241798400879 3.96700787544250488 0.559411823749542236
-1.39847612380981445 -2.07464361190795898 0.387335985898971558
1.19771206378936768 2.4875035285949707 0.648264527320861816
0.736451804637908936 -2.85499429702758789 0.541723668575286865
0.983171164989471436 3.45559239387512207 0.579455971717834473
-1.79818987846374512 0.91447913646697998 0.592916548252105713
0.000571489334106445312 2.68348097801208496 0.660230398178100586
0.996933102607727051 2.7143704891204834 0.575958788394927979
-0.842019975185394287 1.63851308822631836 0.587189972400665283
1.23341584205627441 2.52354788780212402 0.636207342147827148
1.34792423248291016 -3.4377140998840332 0.383865267038345337
-0.323964834213256836 3.86120247840881348 0.524234116077423096
-2.97000002861022949 0.76281362771987915 0.773589074611663818
-2.28148102760314941 3.96073341369628906 0.568453788757324219
0.750533163547515869 -2.83014154434204102 0.644640147686004639
1.0039360523223877 -3.9899747371673584 0.683603286743164062
-2.8135073184967041 0.917023837566375732 0.710526466369628906
0.811720848083496094 -1.84191250801086426 0.395537704229354858
1.085532546043396 -2.97232794761657715 0.61619877815246582
2.43920707702636719 -2.73109650611877441 0.504939019680023193
-2.55835437774658203 1.4391019344329834 0.668683469295501709
1.99516284465789795 -3.31482696533203125 1.02954566478729248
2.43031620979309082 -2.74431490898132324 0.49024665355682373
-2.12920951843261719 3.32640671730041504 0.452100664377212524
-2.25496959686279297 3.19761753082275391 0.425461828708648682
1.90058910846710205 -3.16612029075622559 0.732580304145812988
2.4334418773651123 -2.74309206008911133 0.493699312210083008
1.06050372123718262 -3.8779902458190918 0.601912856101989746
0.989581108093261719 -3.7767329216003418 0.720425784587860107
1.2901914119720459 -4.93250656127929688 0.510661423206329346
1.2830350399017334 -4.43919992446899414 0.577815711498260498
1.33448672294616699 -4.19801759719848633 0.659121572971343994
1.46319150924682617 -4.24166059494018555 0.71333998441696167
1.50320184230804443 -2.44568204879760742 0.60407257080078125
1.82212233543395996 -3.31229162216186523 0.508298575878143311
0.977804839611053467 -3.97017788887023926 0.679056882858276367
-1.77005612850189209 4.03951501846313477 0.805218338966369629
1.26097619533538818 -3.6830284595489502 0.581986725330352783
1.79300618171691895 -2.28773975372314453 0.496281474828720093
0.691661715507507324 -4.13333606719970703 0.85337597131729126
0.980945169925689697 -4.00710964202880859 0.702093720436096191
2.44642806053161621 -3.23610615730285645 0.793121039867401123
1.96964967250823975 -3.7476198673248291 0.698332071304321289
0.74403536319732666 -3.81199383735656738 0.413176566362380981
-2.9075324535369873 1.1787562370300293 0.868458330631256104
-2.83659934997558594 -1.23935139179229736 0.246609672904014587
0.408591359853744507 3.44554901123046875 0.768872261047363281
1.22569870948791504 3.09097743034362793 0.726498782634735107
-2.22812175750732422 2.64529156684875488 0.680496513843536377
-1.26240444183349609 3.19537830352783203 0.557835400104522705
-2.69578242301940918 -1.31625974178314209 0.274760425090789795
-1.23268306255340576 -2.89734268188476562 0.689955353736877441
1.57719707489013672 2.53343439102172852 0.739318907260894775
-2.33962535858154297 1.73120200634002686 0.650528311729431152
-2.23670005798339844 2.64970993995666504 0.68030315637588501
-1.24307501316070557 -2.90254902839660645 0.708180546760559082
-2.4982755184173584 -1.37655842304229736 0.24089735746383667
-1.93483984470367432 -2.36774015426635742 0.335477322340011597
-0.000283196568489074707 2.66265320777893066 0.641223907470703125
-0.0676082521677017212 3.40439367294311523 0.781450629234313965
-1.71016550064086914 3.32873439788818359 0.411858141422271729
1.90347445011138916 2.68387055397033691 0.704609274864196777
-2.79208683967590332 -1.18303930759429932 0.277490496635437012
0.0957316756248474121 -3.56684088706970215 0.520616352558135986
-2.68955469131469727 2.1455080509185791 0.524181485176086426
1.55508089065551758 -2.40763163566589355 0.631705760955810547
-2.6458740234375 2.19098520278930664 0.537595272064208984
-2.08524799346923828 2.91378092765808105 0.599960744380950928
0.641712069511413574 -0.994193911552429199 0.480692803859710693
-1.23034858703613281 -2.89113974571228027 0.721404373645782471
-1.35462379455566406 -2.94982242584228516 0.171732276678085327
-2.02970576286315918 2.41854286193847656 0.525096356868743896
-2.42197442054748535 -1.55273938179016113 0.383513867855072021
-2.05067157745361328 2.92454648017883301 0.571704268455505371
-1.23257124423980713 -2.89614152908325195 0.685382664203643799
1.42383825778961182 -0.989146947860717773 0.6181069016456604
0.558258652687072754 -1.41410279273986816 0.513667762279510498
0.552982509136199951 -1.43085741996765137 0.507988452911376953
1.15670311450958252 -0.763195037841796875 0.499083578586578369
0.808525741100311279 -0.54065251350402832 0.67883598804473877
1.42669379711151123 -0.572949469089508057 0.545653820037841797
1.5051807165145874 1.02706766128540039 0.591070234775543213
0.551677405834197998 -1.42974340915679932 0.51513206958770752
0.0214235559105873108 1.82635533809661865 0.654447376728057861
-1.01051998138427734 -0.842261612415313721 0.502098977565765381
-1.05378615856170654 -0.894512712955474854 0.575483918190002441
-1.01043355464935303 -0.886894524097442627 0.507799804210662842
-1.95574367046356201 0.927073538303375244 0.652741789817810059
0.885233640670776367 -0.241816014051437378 0.598037481307983398
0.691642224788665771 -1.06818878650665283 0.61873471736907959
-1.48675847053527832 0.78842616081237793 0.491288870573043823
0.551036715507507324 -1.42997002601623535 0.511507630348205566
-1.20391786098480225 -0.776031732559204102 0.48727080225944519
0.543143868446350098 -1.43094849586486816 0.516334295272827148
-1.48431634902954102 0.806017637252807617 0.476312518119812012
0.549844801425933838 -1.45041251182556152 0.499939888715744019
-1.54226374626159668 -0.546809732913970947 0.515814304351806641
0.861570537090301514 -0.275107353925704956 0.492899715900421143
1.0904994010925293 -0.687255203723907471 0.639815330505371094
0.94829714298248291 1.0381162166595459 0.613776266574859619
1.42385947704315186 -0.567233741283416748 0.541557788848876953
0.168457180261611938 -0.320389270782470703 0.508587300777435303
1.22382473945617676 -0.688193380832672119 0.580193042755126953
0.00831465795636177063 1.81511998176574707 0.63739311695098877
-1.43731904029846191 0.824861407279968262 0.449525564908981323
0.949775397777557373 1.03762805461883545 0.615158438682556152
1.3873896598815918 -0.650811195373535156 0.562383592128753662
1.51554179191589355 -1.24293315410614014 0.715596199035644531
0.832534313201904297 -0.241165027022361755 0.591537535190582275
-0.571853220462799072 -0.0485824756324291229 0.545853555202484131
-0.325222432613372803 0.729417204856872559 0.592078566551208496
1.08108079433441162 -1.70583188533782959 0.475661277770996094
0.810714423656463623 -0.260265707969665527 0.572851121425628662
-0.203897222876548767 -0.136000081896781921 0.566809117794036865
-0.758646368980407715 0.867024719715118408 0.543171346187591553
0.165586158633232117 -0.325765490531921387 0.528956413269042969
0.808126091957092285 -0.535983145236968994 0.626803994178771973
-0.652629315853118896 0.400610774755477905 0.50671762228012085
0.164620146155357361 -0.323460191488265991 0.531684458255767822
1.393196702003479 -1.36548840999603271 0.603999316692352295
1.55528485774993896 -1.24481093883514404 0.679855525493621826
0.183803990483283997 -0.312207579612731934 0.534384727478027344
1.52757585048675537 -1.2592090368270874 0.665550410747528076
0.943004846572875977 1.03067398071289062 0.610028088092803955
0.946133315563201904 1.03531050682067871 0.607521891593933105
0.950417578220367432 1.03568637371063232 0.607223093509674072
1.55202722549438477 -1.21036291122436523 0.70178520679473877
0.882146656513214111 2.31407427787780762 0.637240171432495117
1.26788663864135742 -0.232562869787216187 0.540567874908447266
1.06618702411651611 -1.40220856666564941 0.567061722278594971
1.38811385631561279 -0.596831202507019043 0.426954567432403564
0.796435952186584473 -0.232622146606445312 0.590947985649108887
0.941193699836730957 1.03035998344421387 0.603682577610015869
0.942605733871459961 1.03025126457214355 0.603216409683227539
-0.763701856136322021 0.870650053024291992 0.547942101955413818
-1.21396255493164062 0.00370188429951667786 0.622819662094116211
-0.758824467658996582 0.870330989360809326 0.547805070877075195
0.948095440864562988 1.0347132682800293 0.6065787672996521
0.857992172241210938 0.992093324661254883 0.608392298221588135
1.14472341537475586 -2.21464443206787109 0.609208464622497559
1.64928710460662842 3.18327093124389648 0.514372169971466064
1.43627619743347168 1.9418565034866333 0.646352946758270264
1.05791473388671875 3.40901708602905273 0.630908668041229248
1.56585121154785156 -1.34166216850280762 0.67474675178527832
-1.4836047887802124 2.21304941177368164 0.642073631286621094
-2.2215278148651123 0.647340714931488037 0.729649186134338379
1.43286812305450439 1.94021844863891602 0.645234942436218262
-1.43209743499755859 0.812104284763336182 0.45643278956413269
1.15200555324554443 -2.28601598739624023 0.535842239856719971
1.21173155307769775 3.86304044723510742 0.586231470108032227
1.23016571998596191 2.57491159439086914 0.63535153865814209
0.950117707252502441 3.59089016914367676 0.553973019123077393
-1.33767139911651611 -2.17093372344970703 0.460621237754821777
1.43418252468109131 1.95542216300964355 0.640898585319519043
0.259315788745880127 -2.2336268424987793 0.514635026454925537
1.8094174861907959 -1.99424755573272705 0.483678728342056274
0.961571335792541504 -1.53122854232788086 0.437636077404022217
-0.281296133995056152 2.93838310241699219 0.51631319522857666
-2.2905585765838623 -1.90429139137268066 0.577445507049560547
-2.24115324020385742 0.675308763980865479 0.781874239444732666
-1.12955808639526367 -2.37438368797302246 0.50364375114440918
1.54822134971618652 -1.62007236480712891 0.697787463665008545
1.17023849487304688 3.10657835006713867 0.675000548362731934
0.918917834758758545 -1.64694046974182129 0.0457901135087013245
-1.25257194042205811 -2.02294731140136719 0.439412057399749756
-2.13376140594482422 -1.98063349723815918 0.605704605579376221
0.570520937442779541 -3.5211489200592041 0.55148017406463623
0.0302452836185693741 2.50859785079956055 0.63428652286529541
0.244634121656417847 -2.24514865875244141 0.491251975297927856
1.80519592761993408 -1.39804291725158691 1.04152917861938477
0.0260401051491498947 2.52051973342895508 0.647141575813293457
1.43139183521270752 -0.644433200359344482 0.527161657810211182
1.39410161972045898 1.99404573440551758 0.581266641616821289
0.0527656525373458862 -0.0104886358603835106 0.244628459215164185
1.44576919078826904 -1.08880889415740967 0.645719051361083984
1.75446677207946777 -1.33596515655517578 0.910727977752685547
0.223645418882369995 -0.40814700722694397 0.610579848289489746
-1.44813299179077148 0.808971047401428223 0.451268047094345093
1.43270134925842285 -0.651936054229736328 0.514760494232177734
-1.04442703723907471 -1.03671503067016602 0.488717555999755859
0.725980818271636963 1.79709970951080322 0.527825593948364258
0.555282533168792725 -1.45144271850585938 0.485954642295837402
1.90341091156005859 0.0742238983511924744 0.434887737035751343
0.00820695236325263977 1.84102857112884521 0.645760297775268555
1.51410043239593506 -1.09941518306732178 0.677335441112518311
0.00332445558160543442 1.83260107040405273 0.647095024585723877
0.713859498500823975 1.75468564033508301 0.667627930641174316
0.962910056114196777 -0.783004879951477051 0.310610502958297729
1.48268353939056396 -1.08189034461975098 0.505853891372680664
1.23528206348419189 3.08198761940002441 0.739482462406158447
1.46123349666595459 -0.634925186634063721 0.536272287368774414
1.18034732341766357 -1.79215669631958008 0.536240637302398682
1.50049722194671631 -0.919459640979766846 0.58414912223815918
-1.4474494457244873 0.859205007553100586 0.424464821815490723
1.22623157501220703 3.5373528003692627 0.5734710693359375
1.40754818916320801 3.4739072322845459 0.575429141521453857
-1.45453405380249023 0.813252389430999756 0.446205973625183105
1.43686139583587646 -0.657944858074188232 0.51822352409362793
0.583046138286590576 3.6619422435760498 0.603375256061553955
1.45635020732879639 -0.619766592979431152 0.535885274410247803
-1.49085068702697754 2.21743178367614746 0.670235037803649902
0.00937339849770069122 1.92177367210388184 0.649036049842834473
1.39968776702880859 3.27461886405944824 0.526413261890411377
