ply
format ascii 1.0
element vertex 256
comment vertices
property float x
property float y
property float z
end_header
-0.188279956579208374 0.082492530345916748 0.673322141170501709
0.127351462841033936 0.729597091674804688 0.606956541538238525
0.0958388373255729675 -0.34296908974647522 0.509028136730194092
0.0805096551775932312 -0.365955710411071777 0.473508089780807495
0.209908917546272278 -0.38721427321434021 0.567413449287414551
-0.44203755259513855 -0.350269794464111328 0.458295911550521851
0.73952639102935791 -0.148174285888671875 0.418775737285614014
0.770335495471954346 -0.225639626383781433 0.567963182926177979
0.798250734806060791 -0.21060451865196228 0.550303041934967041
0.737230062484741211 -0.333146184682846069 0.569279015064239502
0.829851686954498291 -0.23009173572063446 0.523779392242431641
0.852113604545593262 -0.201064452528953552 0.606107771396636963
-0.711151361465454102 0.872239828109741211 0.617595374584197998
-0.757759273052215576 0.839074850082397461 0.562986910343170166
0.96585536003112793 0.338405102491378784 0.502189159393310547
0.869602799415588379 -0.24615401029586792 0.533997774124145508
0.914227724075317383 -0.197087228298187256 0.601364552974700928
0.906275153160095215 -0.392066448926925659 0.449237734079360962
0.973403334617614746 -0.379230737686157227 0.637121021747589111
0.870566368103027344 1.01909768581390381 0.590295076370239258
0.882044553756713867 1.02025997638702393 0.599396944046020508
1.06216704845428467 0.77231520414352417 0.415986299514770508
0.871113300323486328 -0.638635098934173584 0.572784662246704102
0.917323529720306396 1.0565030574798584 0.60653918981552124
0.708754599094390869 -0.824346244335174561 0.539780378341674805
-0.778452515602111816 1.23426949977874756 0.601551830768585205
0.736045002937316895 -0.866452932357788086 0.55201113224029541
1.07017898559570312 -0.59303593635559082 0.727342605590820312
-0.957169830799102783 -0.804003417491912842 0.478909194469451904
0.905022382736206055 -0.875067174434661865 0.609303474426269531
0.0949905067682266235 1.66322088241577148 0.483384579420089722
1.14612221717834473 -0.695468902587890625 0.504709601402282715
1.06440186500549316 -0.804542183876037598 0.464303493499755859
1.23559784889221191 -0.637777984142303467 0.444986820220947266
-1.16901159286499023 1.21175646781921387 0.589654088020324707
0.759525477886199951 -1.11083436012268066 0.548120081424713135
1.15678679943084717 -0.798526287078857422 0.585722446441650391
-1.47047770023345947 0.729447424411773682 0.51603013277053833
-1.40151107311248779 0.917822837829589844 0.611701488494873047
-0.0105990469455718994 1.79014348983764648 0.663627564907073975
-1.03476035594940186 -0.939362525939941406 0.875328004360198975
0.00243198871612548828 1.80766808986663818 0.69565659761428833
1.54946374893188477 0.600950181484222412 0.517623603343963623
0.00247937440872192383 1.82532548904418945 0.63683784008026123
0.00491857528686523438 1.83739709854125977 0.625788033008575439
-1.09345245361328125 -0.973914921283721924 0.819869756698608398
-0.983620762825012207 -1.09517836570739746 0.395001918077468872
0.578260481357574463 1.75319981575012207 0.786246716976165771
1.37745964527130127 -0.691627025604248047 0.377590954303741455
-1.17337632179260254 -0.97483372688293457 0.478700369596481323
-1.06621217727661133 -1.07699978351593018 0.549394667148590088
0.549173057079315186 -1.36971616744995117 0.565158307552337646
0.615057647228240967 -1.34833884239196777 0.487038791179656982
-1.66311430931091309 0.598389089107513428 0.526718020439147949
1.34322071075439453 -0.819611668586730957 0.451034456491470337
-1.25971949100494385 1.3852241039276123 0.513563275337219238
0.705085694789886475 1.78816902637481689 0.73297959566116333
-1.17099130153656006 -1.06708419322967529 0.467025846242904663
-1.5925060510635376 0.952911674976348877 0.468180865049362183
1.51485693454742432 -0.660549521446228027 0.511856615543365479
1.53877568244934082 -0.626705944538116455 0.593340575695037842
-0.0405834391713142395 1.98790442943572998 0.647228360176086426
-1.64848065376281738 0.905214548110961914 0.587126493453979492
-0.247701629996299744 1.98885512351989746 0.524864792823791504
-1.17912697792053223 1.5761561393737793 0.495928496122360229
1.6132051944732666 -0.575653016567230225 0.597889125347137451
1.47197341918945312 -0.821997642517089844 0.385355055332183838
0.573521614074707031 -1.50787508487701416 0.491944223642349243
-1.4741666316986084 1.31872236728668213 0.665427625179290771
0.867624282836914062 1.83979308605194092 0.535176992416381836
1.60816550254821777 -0.672944307327270508 0.570042848587036133
-1.77164578437805176 0.781886279582977295 0.497696846723556519
-0.958880782127380371 -1.38022232055664062 0.476372689008712769
1.41012430191040039 -1.01011741161346436 0.62986457347869873
1.62545132637023926 -0.733698487281799316 0.486721128225326538
-1.51971316337585449 1.38194382190704346 0.64019775390625
-1.3049473762512207 -1.1953427791595459 0.518572032451629639
-0.803206801414489746 -1.53514313697814941 0.587727665901184082
-1.90050745010375977 0.651010751724243164 0.614931643009185791
-1.54046547412872314 1.41303086280822754 0.720318436622619629
-1.18027830123901367 -1.34665155410766602 0.531960546970367432
1.43700826168060303 -1.10726737976074219 0.440190136432647705
1.49542272090911865 -1.10436797142028809 0.538794815540313721
-1.83002698421478271 1.07912349700927734 0.522453427314758301
0.725580751895904541 2.10985970497131348 0.578950345516204834
-1.75458121299743652 1.25983667373657227 0.581949710845947266
-1.87960314750671387 1.02592349052429199 0.493253618478775024
1.09392762184143066 -1.50855672359466553 0.533064186573028564
1.54239392280578613 -1.13577425479888916 0.578170537948608398
1.72861790657043457 -0.953945636749267578 0.520709097385406494
1.72977280616760254 -0.962542593479156494 0.533854842185974121
1.4918060302734375 -1.27568888664245605 0.560187757015228271
0.823013484477996826 2.18277716636657715 0.573888659477233887
0.864211797714233398 2.17728567123413086 0.451480120420455933
1.55404925346374512 -1.28448593616485596 0.540231823921203613
-2.17962503433227539 0.158751577138900757 0.658576250076293945
-2.14089155197143555 0.655719399452209473 0.650428831577301025
-2.18691182136535645 0.0579487830400466919 0.605881452560424805
-1.25992107391357422 -1.58634257316589355 0.524007081985473633
1.07195210456848145 2.14470767974853516 0.477409780025482178
1.25725769996643066 -1.58912813663482666 0.422268420457839966
1.75444507598876953 -1.14916300773620605 0.535443365573883057
-2.05372786521911621 1.11600208282470703 0.511873126029968262
1.47833359241485596 1.9029470682144165 0.668128907680511475
1.98950207233428955 -0.841155886650085449 0.577816188335418701
1.22687697410583496 -1.68562793731689453 0.597010433673858643
-2.2323143482208252 0.691190123558044434 0.709692180156707764
-0.238131344318389893 2.49476861953735352 0.459642708301544189
1.95302939414978027 -0.964460015296936035 0.629622399806976318
-0.265309751033782959 2.50434064865112305 0.525287628173828125
-1.72095322608947754 1.76403665542602539 0.572382330894470215
1.42172205448150635 2.03636002540588379 0.671728074550628662
1.42921662330627441 2.03602981567382812 0.63061821460723877
1.93337726593017578 -1.0586240291595459 0.47007402777671814
-1.02938473224639893 -1.88325357437133789 0.490060418844223022
0.032959282398223877 2.57359647750854492 0.674250423908233643
-1.2800217866897583 -1.77462482452392578 0.413461029529571533
-2.19622659683227539 1.16562044620513916 0.550294697284698486
0.69612574577331543 -2.0414726734161377 0.170360535383224487
-1.97726011276245117 -1.15691971778869629 0.417397350072860718
0.761446237564086914 2.50292062759399414 0.709324121475219727
-2.36366724967956543 0.734375119209289551 0.785742402076721191
-0.664706289768218994 2.5633997917175293 0.558187246322631836
1.05295884609222412 2.4139869213104248 0.605824947357177734
0.205140933394432068 -2.21318411827087402 0.569719970226287842
-0.546746373176574707 2.60750079154968262 0.6051827073097229
-1.03739118576049805 -2.00720381736755371 0.584167540073394775
-1.56563854217529297 -1.68988823890686035 0.482055723667144775
0.284086227416992188 -2.23803377151489258 0.515331029891967773
1.31602978706359863 -1.88443672657012939 0.441277980804443359
1.21435451507568359 2.38797426223754883 0.736575305461883545
1.22041261196136475 2.38914155960083008 0.719324171543121338
1.24535620212554932 2.38898658752441406 0.671036124229431152
-1.0210113525390625 2.52226662635803223 0.547201275825500488
1.26531374454498291 2.40405797958374023 0.685722768306732178
-1.52658343315124512 2.25201749801635742 0.635238826274871826
-2.22039508819580078 1.4763946533203125 0.55797731876373291
-1.52823662757873535 2.26407408714294434 0.677587985992431641
0.465425848960876465 -2.29250931739807129 0.500710487365722656
1.52934741973876953 -1.83148312568664551 0.524748504161834717
-1.32455360889434814 -1.99191796779632568 0.418357312679290771
-1.41968739032745361 2.39430427551269531 0.717080235481262207
-2.20930671691894531 1.61506855487823486 0.527502357959747314
-1.56781816482543945 2.31632494926452637 0.463385045528411865
1.82532298564910889 -1.6575615406036377 0.587058722972869873
1.57829868793487549 2.31614112854003906 0.561350345611572266
0.975588321685791016 2.66378188133239746 0.537555098533630371
1.70787668228149414 2.27079939842224121 0.566889524459838867
1.31094443798065186 2.55183863639831543 0.535001516342163086
0.577168047428131104 -2.40607500076293945 0.346842736005783081
0.0937781482934951782 2.93128180503845215 0.614641487598419189
-0.838442981243133545 2.83690738677978516 0.66947561502456665
-1.54556155204772949 2.50373196601867676 0.547281920909881592
-0.547233343124389648 2.92762994766235352 0.568673014640808105
1.27426505088806152 2.67596077919006348 0.55013740062713623
0.00762608647346496582 3.01303243637084961 0.700620174407958984
0.0099744945764541626 3.02154707908630371 0.712417185306549072
-2.31708312034606934 -1.36819148063659668 0.316521197557449341
-1.47230648994445801 2.62729144096374512 0.551440179347991943
-0.8697052001953125 2.92458987236022949 0.703830480575561523
1.51319348812103271 2.63084816932678223 0.47257348895072937
1.43332409858703613 -2.25909781455993652 0.580213546752929688
-2.20774722099304199 2.09020805358886719 0.536490201950073242
1.25242817401885986 2.82494854927062988 0.575898110866546631
1.45406019687652588 2.73122692108154297 0.686288893222808838
-2.0969846248626709 -1.82095921039581299 0.566861748695373535
1.63788712024688721 -2.21620917320251465 0.505508184432983398
-2.18343877792358398 2.20435023307800293 0.651243865489959717
-1.46950232982635498 2.78873801231384277 0.487663865089416504
1.84530580043792725 -2.07621264457702637 0.824706673622131348
-2.41895961761474609 -1.49699950218200684 0.313990086317062378
1.46007847785949707 -2.37181830406188965 0.661988139152526855
-1.53019106388092041 2.79246807098388672 0.501697719097137451
-2.98832321166992188 -0.0448858737945556641 0.607833743095397949
-0.90172421932220459 3.0840611457824707 0.567833423614501953
-0.00820640474557876587 3.23755407333374023 0.716688156127929688
1.61377966403961182 2.78952503204345703 0.573967576026916504
0.756299376487731934 3.16317462921142578 0.524628758430480957
1.35242509841918945 2.94441747665405273 0.466418057680130005
1.51994633674621582 2.86342930793762207 0.475303798913955688
1.60818207263946533 2.8149106502532959 0.578152179718017578
-1.9333045482635498 2.6032867431640625 0.495135128498077393
1.21765923500061035 3.0281519889831543 0.748528361320495605
1.29217374324798584 3.00319838523864746 0.712077617645263672
1.28262531757354736 3.02040815353393555 0.688561379909515381
-0.0704811662435531616 3.30769252777099609 0.704032361507415771
-1.27729976177215576 -2.60440826416015625 0.545098602771759033
1.52283120155334473 2.91471242904663086 0.494168698787689209
1.54871320724487305 -2.47564458847045898 0.522524833679199219
1.57254171371459961 2.91629767417907715 0.613770246505737305
0.689068138599395752 -2.83470344543457031 0.560313224792480469
-2.96394777297973633 1.2086029052734375 0.877559304237365723
-2.6938166618347168 -1.39458107948303223 0.372631251811981201
-2.99381017684936523 1.21576464176177979 0.664967060089111328
-3.01303744316101074 1.18035340309143066 0.681674838066101074
-1.21894431114196777 -2.70172572135925293 0.627598226070404053
1.8316648006439209 -2.36194634437561035 0.603615880012512207
-1.40304899215698242 -2.64310050010681152 0.415347039699554443
0.92570728063583374 3.28923535346984863 0.510498344898223877
-1.71091532707214355 2.94931221008300781 0.59608989953994751
-0.163104712963104248 3.43015956878662109 0.792049705982208252
1.6355288028717041 2.99847888946533203 0.546924233436584473
1.66286683082580566 2.99374508857727051 0.621196746826171875
-1.3698878288269043 -2.73265266418457031 0.507555007934570312
-3.13008594512939453 1.14628374576568604 0.679729819297790527
-3.0875394344329834 1.31586503982543945 0.682954847812652588
-0.131899476051330566 3.49839091300964355 0.583818495273590088
-2.25148677825927734 2.61456918716430664 0.661046028137207031
-2.86533236503601074 1.83891868591308594 0.631030917167663574
-1.23355984687805176 -2.83033585548400879 0.688005805015563965
-2.25326371192932129 2.64003276824951172 0.655318200588226318
-2.25737094879150391 2.64413332939147949 0.679789245128631592
-1.24867475032806396 -2.85240316390991211 0.839704632759094238
-1.33526074886322021 -2.82276058197021484 0.317019939422607422
-1.2396923303604126 -2.87878990173339844 0.612926721572875977
-1.27898728847503662 -2.86721515655517578 0.788488030433654785
-1.77953851222991943 3.07099676132202148 0.484485149383544922
1.57495021820068359 -2.73986363410949707 0.338540911674499512
-2.87016701698303223 2.03660202026367188 0.652953803539276123
-3.33302998542785645 0.873934507369995117 0.786250650882720947
-2.05044841766357422 -2.50032687187194824 0.465418994426727295
-1.42812061309814453 3.33806252479553223 0.541406393051147461
0.847942233085632324 3.55190062522888184 0.615647435188293457
1.59575438499450684 -2.83734869956970215 0.626100063323974609
-3.29923248291015625 1.31389188766479492 0.812407135963439941
-2.38201808929443359 2.80363082885742188 0.509233295917510986
1.23708617687225342 3.53500175476074219 0.533890783786773682
-3.1790921688079834 1.86354303359985352 0.633154869079589844
-1.80278944969177246 3.32672572135925293 0.290619581937789917
-2.09533500671386719 3.17315196990966797 0.544632971286773682
-0.256957769393920898 3.85114288330078125 0.507139205932617188
0.968942046165466309 3.75293946266174316 0.612604260444641113
-2.79821443557739258 2.62440586090087891 0.536919951438903809
-2.35029911994934082 3.08694934844970703 0.357660382986068726
-0.773166358470916748 3.87026643753051758 0.463169664144515991
0.711185038089752197 3.90148282051086426 0.682373285293579102
0.888851284980773926 3.89967846870422363 0.618023157119750977
-2.22491335868835449 3.35876131057739258 0.489612221717834473
0.895350098609924316 4.0744175910949707 0.583261013031005859
2.03744816780090332 -3.21557068824768066 0.815108537673950195
2.42846441268920898 -2.97783660888671875 0.561297357082366943
-1.85860419273376465 3.85138607025146484 0.558592259883880615
-2.09782648086547852 3.82723140716552734 0.646540284156799316
-1.93295741081237793 3.9268486499786377 0.862247586250305176
2.50792622566223145 -3.12619137763977051 0.893720269203186035
-1.96755790710449219 3.95492935180664062 0.785384535789489746
0.307188749313354492 -4.00707769393920898 0.290184706449508667
-1.08651041984558105 4.34705734252929688 0.741522073745727539
0.999342024326324463 -3.95336079597473145 0.809769332408905029
0.45442664623260498 -4.08325815200805664 0.802675485610961914
0.855631470680236816 -4.04515171051025391 0.824858009815216064
1.00109827518463135 -4.03766727447509766 0.734078943729400635
1.06960535049438477 -4.06078577041625977 0.680174767971038818
1.20597445964813232 -4.13173341751098633 0.704049229621887207
1.85904991626739502 -3.92961287498474121 0.811031103134155273
1.5981900691986084 -4.22741031646728516 0.65519946813583374
