ply
format ascii 1.0
element vertex 141
comment vertices
property float x
property float y
property float z
end_header
0.161606013774871826 -0.342321932315826416 0.532179117202758789
0.157081693410873413 -0.345077872276306152 0.523622095584869385
0.184920921921730042 -0.330311775207519531 0.547234177589416504
0.859992146492004395 -0.233952790498733521 0.523849368095397949
0.823031604290008545 -0.246169745922088623 0.542958438396453857
0.82330012321472168 -0.249538615345954895 0.544245004653930664
0.808005630970001221 -0.261150062084197998 0.536239862442016602
0.81458514928817749 -0.243804782629013062 0.544184744358062744
0.821668386459350586 -0.243270382285118103 0.552279531955718994
-0.773823142051696777 0.856985092163085938 0.53521960973739624
-0.772625744342803955 0.852205276489257812 0.543705165386199951
0.814099371433258057 -0.238757357001304626 0.549506545066833496
0.810420453548431396 -0.244541361927986145 0.554849803447723389
0.844048857688903809 -0.223549380898475647 0.530820310115814209
0.849442839622497559 -0.22068236768245697 0.533269166946411133
0.943805277347564697 1.04735100269317627 0.620593011379241943
0.942993402481079102 1.04756498336791992 0.620245873928070068
0.846742391586303711 -0.540688633918762207 0.57837146520614624
0.946228325366973877 1.05277085304260254 0.623306334018707275
0.84022212028503418 -0.771906852722167969 0.649761795997619629
0.84964287281036377 -0.782391250133514404 0.663186073303222656
1.02366173267364502 -0.592010080814361572 0.70622330904006958
0.888292551040649414 -0.783252120018005371 0.610986649990081787
0.0176611244678497314 1.85725677013397217 0.620691955089569092
0.984778285026550293 -0.67554008960723877 0.539519071578979492
0.95285874605178833 -0.801847755908966064 0.494778931140899658
1.32530331611633301 -0.66437685489654541 0.528127551078796387
0.64032900333404541 -1.2504962682723999 0.594689905643463135
1.02824985980987549 -0.773683309555053711 0.581224501132965088
-1.52016520500183105 0.738635599613189697 0.523585498332977295
-1.53859007358551025 0.921321868896484375 0.556781113147735596
0.0282913073897361755 1.88182938098907471 0.638346433639526367
0.0340509451925754547 1.88284075260162354 0.645134150981903076
0.0304279979318380356 1.88761484622955322 0.637476980686187744
0.0309236831963062286 1.88927376270294189 0.637939214706420898
0.630355358123779297 1.7408602237701416 0.855780482292175293
1.36308372020721436 -0.617400407791137695 0.523402512073516846
0.551376700401306152 -1.39761674404144287 0.505984246730804443
0.542696774005889893 -1.41529703140258789 0.498577594757080078
-1.49830818176269531 0.700582206249237061 0.616650283336639404
1.22917044162750244 -0.775548815727233887 0.512488067150115967
-1.45104742050170898 1.34979426860809326 0.635926902294158936
0.637272417545318604 1.75062108039855957 0.817412197589874268
-1.54042339324951172 0.915946424007415771 0.507376790046691895
1.48076951503753662 -0.571523487567901611 0.545145809650421143
1.51907515525817871 -0.559625327587127686 0.557990312576293945
0.0311679989099502563 1.91994976997375488 0.63843834400177002
-1.55090761184692383 0.911559462547302246 0.555489122867584229
-0.0363631993532180786 1.96251475811004639 0.617889881134033203
1.55337953567504883 -0.535790979862213135 0.568785369396209717
1.47602212429046631 -0.721598923206329346 0.496565580368041992
0.534308195114135742 -1.4374997615814209 0.465966224670410156
-1.48468303680419922 1.3600839376449585 0.63509601354598999
1.52386593818664551 -0.564091145992279053 0.557754456996917725
-1.57606542110443115 0.735445559024810791 0.555826663970947266
1.40833878517150879 -0.879873991012573242 0.518198370933532715
1.4796212911605835 -0.589971423149108887 0.54764854907989502
-1.48251307010650635 1.36411583423614502 0.635041654109954834
-1.48548746109008789 1.37586569786071777 0.652299344539642334
1.44173324108123779 -1.08331763744354248 0.50965803861618042
1.45904958248138428 -1.01933777332305908 0.495807021856307983
-1.54568135738372803 1.33852863311767578 0.610672473907470703
1.42831826210021973 -1.08618378639221191 0.520796895027160645
1.5086524486541748 -0.883932054042816162 0.587507963180541992
1.5103449821472168 -0.882139265537261963 0.586222827434539795
1.43068599700927734 -1.12485456466674805 0.533072292804718018
1.472953200340271 -1.17028391361236572 0.580638766288757324
-2.1714015007019043 0.633777439594268799 0.728819370269775391
1.24763059616088867 2.22140765190124512 0.55587393045425415
1.54225099086761475 -1.16391170024871826 0.659975588321685791
1.43954932689666748 1.96405589580535889 0.658327996730804443
1.26229012012481689 -1.66739869117736816 0.651740312576293945
-2.15831851959228516 0.646261274814605713 0.734935224056243896
1.68847692012786865 -0.956791460514068604 0.670656800270080566
1.42396759986877441 2.03281426429748535 0.659624874591827393
1.41849327087402344 2.02857041358947754 0.659615516662597656
0.0330446995794773102 2.55273962020874023 0.638284981250762939
-2.24961566925048828 0.690439701080322266 0.741903603076934814
-0.824938654899597168 2.75442814826965332 0.653783261775970459
1.21529006958007812 2.37523937225341797 0.679995059967041016
0.236752539873123169 -2.23117780685424805 0.482475399971008301
0.231231808662414551 -2.23220157623291016 0.490417838096618652
1.31489944458007812 -1.71473014354705811 0.486190199851989746
1.2431025505065918 2.44185328483581543 0.677898168563842773
1.24065744876861572 2.44390463829040527 0.679513216018676758
1.23412513732910156 2.44863319396972656 0.682067751884460449
1.23098981380462646 2.45012378692626953 0.681513369083404541
-1.48789346218109131 2.2915959358215332 0.628655433654785156
-1.48590588569641113 2.29158782958984375 0.625110447406768799
0.248616352677345276 -2.24045538902282715 0.485514670610427856
1.39503669738769531 -1.79723680019378662 0.592828869819641113
-1.46327328681945801 2.31881284713745117 0.666219949722290039
-1.49195230007171631 2.28353571891784668 0.607338488101959229
1.13254523277282715 2.57042717933654785 0.631886184215545654
1.22373831272125244 2.43871307373046875 0.674611926078796387
0.604901492595672607 -2.49325180053710938 0.419585973024368286
0.011817440390586853 3.04236245155334473 0.672272145748138428
-0.872477531433105469 2.89730238914489746 0.679559588432312012
-1.48361921310424805 2.32513093948364258 0.660652995109558105
1.22054147720336914 2.4882047176361084 0.675890564918518066
0.000208172481507062912 3.12163186073303223 0.698944687843322754
-0.000407651998102664948 3.12935495376586914 0.705350935459136963
-1.47715198993682861 2.56570816040039062 0.57412254810333252
-0.865576028823852539 2.89740276336669922 0.6746864914894104
1.47742223739624023 -2.37968063354492188 0.586257815361022949
1.25600194931030273 2.8665165901184082 0.726823687553405762
1.23999869823455811 2.69889712333679199 0.716892600059509277
1.46457576751708984 -2.35014438629150391 0.592186510562896729
1.47629141807556152 -2.39004397392272949 0.579019486904144287
-1.64622628688812256 2.68500709533691406 0.500373423099517822
-0.866640865802764893 2.87691879272460938 0.681509315967559814
-0.00321489851921796799 3.23559713363647461 0.723221898078918457
1.28631162643432617 3.02492117881774902 0.627872943878173828
1.23484337329864502 3.0671379566192627 0.728538036346435547
1.20779430866241455 3.0919501781463623 0.709624052047729492
1.20862221717834473 3.09276366233825684 0.718772351741790771
-0.0137415900826454163 3.24495434761047363 0.730946838855743408
-1.1920391321182251 -2.67528915405273438 0.515447556972503662
1.45669651031494141 -2.39293742179870605 0.571341395378112793
0.763332664966583252 -2.83923149108886719 0.608899116516113281
-1.20791816711425781 -2.74449658393859863 0.601338982582092285
-1.25506007671356201 -2.73858118057250977 0.401455819606781006
-1.68034815788269043 2.795867919921875 0.609401166439056396
-0.0614723116159439087 3.36235666275024414 0.748366236686706543
-1.23224329948425293 -2.83543133735656738 0.473665595054626465
-0.0554482787847518921 3.41033196449279785 0.703708469867706299
-2.21992373466491699 2.62783718109130859 0.750105381011962891
-1.23597276210784912 -2.78220391273498535 0.65424501895904541
-2.21418023109436035 2.63381695747375488 0.746445655822753906
-2.21659064292907715 2.63424205780029297 0.748804986476898193
-1.2376854419708252 -2.80389070510864258 0.784063220024108887
-1.32100188732147217 -2.84921455383300781 0.219616249203681946
-1.24378252029418945 -2.84996581077575684 0.607428431510925293
-1.23605144023895264 -2.8586428165435791 0.766782104969024658
-2.23031067848205566 2.63134551048278809 0.619243979454040527
-0.98265606164932251 4.31896162033081055 0.721794724464416504
1.01297485828399658 -4.00714921951293945 0.72550046443939209
0.496305793523788452 -4.08061361312866211 0.801244199275970459
0.84148406982421875 -4.07234477996826172 0.842531383037567139
1.02440512180328369 -4.03183126449584961 0.673071682453155518
1.04134786128997803 -4.04657649993896484 0.651190578937530518
