ply
format ascii 1.0
element vertex 256
comment vertices
property float x
property float y
property float z
end_header
-1.41727805137634277 2.86180830001831055 0.540881752967834473
0.809057354927062988 2.90051484107971191 0.778209984302520752
1.69553780555725098 -2.89049100875854492 0.46277850866317749
-1.50772976875305176 2.81851983070373535 0.498236030340194702
1.23219215869903564 3.68693757057189941 0.727288603782653809
-1.27661919593811035 -2.76977944374084473 0.329868078231811523
0.00225339829921722412 3.01304054260253906 0.711216211318969727
1.28084766864776611 -3.60222291946411133 0.172480672597885132
-1.45703411102294922 1.42871522903442383 0.573965668678283691
0.00707875192165374756 3.03308272361755371 0.707312703132629395
-2.29760599136352539 -1.97016251087188721 0.558114409446716309
-1.27464723587036133 -2.61787509918212891 0.34625282883644104
-1.63614022731781006 1.6141512393951416 0.62037050724029541
-0.864076018333435059 1.67666888236999512 0.527658700942993164
1.77002108097076416 -2.75925111770629883 0.536716699600219727
-0.659883499145507812 -3.16067123413085938 0.584328234195709229
0.750029981136322021 -2.796539306640625 0.483818888664245605
-3.12044286727905273 2.05510807037353516 0.499481797218322754
0.720958173274993896 3.33306717872619629 0.646912693977355957
-1.01841580867767334 -2.78123331069946289 0.412360578775405884
1.84023010730743408 -2.8323519229888916 0.525577962398529053
-1.2041475772857666 -2.69234776496887207 0.635006427764892578
1.38867092132568359 2.80261945724487305 0.827805399894714355
-1.19788730144500732 -2.69043564796447754 0.63957524299621582
1.66944468021392822 2.74747610092163086 0.523765444755554199
-1.16753101348876953 -2.73495936393737793 0.256430476903915405
-1.62654447555541992 1.98710095882415771 0.579516410827636719
0.903716921806335449 2.38637018203735352 0.617909371852874756
-2.57007479667663574 2.28752851486206055 0.625876963138580322
-2.03261733055114746 1.78327429294586182 0.619750082492828369
0.96931380033493042 2.59427022933959961 0.660513401031494141
-1.04493343830108643 -2.79286098480224609 0.493130505084991455
0.475162804126739502 -2.33972406387329102 0.510915637016296387
1.49032652378082275 -1.8040395975112915 0.650656938552856445
-2.49201321601867676 -1.91106152534484863 0.563881576061248779
1.46671080589294434 1.93039727210998535 0.708799362182617188
1.24916553497314453 2.44310641288757324 0.66911083459854126
0.0346999987959861755 2.5871586799621582 0.659487128257751465
-0.859167516231536865 2.78049063682556152 0.692457914352416992
1.02079594135284424 -2.14726591110229492 0.317195117473602295
-1.49350643157958984 2.10868501663208008 0.504523873329162598
0.304578453302383423 -2.28990817070007324 0.508302092552185059
-1.68285763263702393 2.83864688873291016 0.623797774314880371
-1.51098942756652832 2.26472139358520508 0.626358926296234131
1.21989703178405762 2.43690681457519531 0.680041193962097168
-1.35179150104522705 2.61270904541015625 0.462834656238555908
0.845983207225799561 -3.0443260669708252 0.427279919385910034
0.285165011882781982 -3.42257452011108398 0.463913798332214355
-0.867135047912597656 2.83473873138427734 0.662006676197052002
1.53547132015228271 -2.47667121887207031 0.572996854782104492
-0.879404962062835693 2.85451745986938477 0.664766073226928711
0.0347584933042526245 2.76977229118347168 0.632487773895263672
1.23918211460113525 2.55095243453979492 0.705547213554382324
1.23422873020172119 3.97771358489990234 0.486343055963516235
-1.46959948539733887 -2.09083175659179688 0.447398185729980469
1.32248401641845703 2.47438716888427734 0.549078702926635742
0.702224850654602051 -2.6560981273651123 0.521592140197753906
1.03989589214324951 3.39124441146850586 0.492734342813491821
-1.79045748710632324 0.956450760364532471 0.612001776695251465
0.00795646384358406067 2.60219907760620117 0.678814351558685303
1.03030502796173096 2.73415756225585938 0.482618540525436401
-0.839503645896911621 1.64045071601867676 0.543000280857086182
1.22482180595397949 2.70223212242126465 0.469854295253753662
1.33995556831359863 -3.45814657211303711 0.340204477310180664
-0.335599958896636963 3.86057138442993164 0.522670626640319824
-2.96100115776062012 0.699741244316101074 0.73818284273147583
-2.27248239517211914 3.95959901809692383 0.573290705680847168
0.585066556930541992 -2.81959080696105957 0.625876843929290771
1.0747678279876709 -3.93194031715393066 0.785169243812561035
-2.80907511711120605 0.864020943641662598 0.673902273178100586
0.809733390808105469 -1.83085882663726807 0.373317718505859375
1.09224653244018555 -2.97208833694458008 0.593342959880828857
2.41219592094421387 -2.64359021186828613 0.646112620830535889
-2.54071187973022461 1.38748669624328613 0.632397651672363281
1.95478129386901855 -3.25628042221069336 0.97232365608215332
2.3891453742980957 -2.72708654403686523 0.62765192985534668
-2.21844935417175293 3.29795622825622559 0.407439500093460083
-2.31678652763366699 3.14458060264587402 0.408293485641479492
1.90628588199615479 -3.1860969066619873 0.593306303024291992
2.38477587699890137 -2.69024014472961426 0.640108764171600342
1.12010610103607178 -3.77912068367004395 0.592994570732116699
0.98136979341506958 -3.68140220642089844 0.779628455638885498
1.3030707836151123 -4.94708156585693359 0.431299030780792236
1.29450595378875732 -4.47234153747558594 0.5223427414894104
1.35615038871765137 -4.15826654434204102 0.640516757965087891
1.48715662956237793 -4.23684597015380859 0.69470447301864624
1.54406476020812988 -2.50127840042114258 0.388851583003997803
1.84230673313140869 -3.30750322341918945 0.445253998041152954
1.00818943977355957 -3.89318394660949707 0.757126688957214355
-1.89695942401885986 3.97474837303161621 0.892890989780426025
1.31580483913421631 -3.67000913619995117 0.570814251899719238
1.78722918033599854 -2.27951192855834961 0.454333722591400146
0.79843592643737793 -4.02677440643310547 0.75447160005569458
1.00499367713928223 -4.00948953628540039 0.815479636192321777
2.44486308097839355 -3.16854000091552734 0.813042283058166504
1.97957253456115723 -3.76912069320678711 0.652618706226348877
0.723767995834350586 -3.80029535293579102 0.345410823822021484
-2.92205286026000977 1.14160263538360596 0.813289999961853027
-2.81411004066467285 -1.24067866802215576 0.237813100218772888
0.462098151445388794 3.50015020370483398 0.701635658740997314
1.2231520414352417 3.05055952072143555 0.680619120597839355
-2.26508736610412598 2.62983393669128418 0.675515711307525635
-1.22474873065948486 3.2301180362701416 0.531053602695465088
-2.67336034774780273 -1.31810009479522705 0.26688656210899353
-1.21852624416351318 -2.78912830352783203 0.64630436897277832
1.62349569797515869 2.5382382869720459 0.661081969738006592
-2.34446859359741211 1.72932314872741699 0.60212332010269165
-2.24046659469604492 2.61245512962341309 0.691549837589263916
-1.2132725715637207 -2.83578920364379883 0.724974691867828369
-2.48138093948364258 -1.3759995698928833 0.235927417874336243
-1.94872212409973145 -2.34827947616577148 0.352390050888061523
-0.17983582615852356 2.63855600357055664 0.56004023551940918
-0.154449328780174255 3.44452834129333496 0.817044198513031006
-1.69848239421844482 3.26506781578063965 0.422991454601287842
1.89635419845581055 2.6914222240447998 0.694516360759735107
-2.77275729179382324 -1.1830604076385498 0.266248553991317749
0.100353360176086426 -3.59421777725219727 0.482838451862335205
-2.6884453296661377 2.08224844932556152 0.551780402660369873
1.40644931793212891 -2.4811866283416748 0.574149966239929199
-2.6404876708984375 2.12662291526794434 0.558023154735565186
-2.16470861434936523 2.87711596488952637 0.497500628232955933
0.757411539554595947 -0.841278076171875 0.334517151117324829
-1.29485714435577393 -2.8263089656829834 0.759243369102478027
-1.37061727046966553 -2.91514325141906738 0.267193853855133057
-2.05757856369018555 2.30470466613769531 0.453254014253616333
-2.41418075561523438 -1.55882692337036133 0.388440370559692383
-2.03870797157287598 2.88090419769287109 0.452186524868011475
-1.2259366512298584 -2.88447690010070801 0.624737560749053955
1.50043988227844238 -1.03858661651611328 0.560922205448150635
0.611490905284881592 -1.36455225944519043 0.517564713954925537
0.549912452697753906 -1.39547526836395264 0.524407565593719482
1.10619735717773438 -0.747053384780883789 0.451338887214660645
0.788107872009277344 -0.642734408378601074 0.624836742877960205
1.47379255294799805 -0.569449365139007568 0.560590624809265137
1.5233457088470459 1.00065708160400391 0.52638399600982666
0.492590188980102539 -1.36644983291625977 0.567825853824615479
0.0133477449417114258 2.03163480758666992 0.570136129856109619
-0.95337599515914917 -0.797195792198181152 0.496439516544342041
-1.02342867851257324 -0.896399378776550293 0.589117646217346191
-0.975464403629302979 -0.832081079483032227 0.486377239227294922
-1.97816932201385498 0.947068929672241211 0.625267982482910156
1.09066116809844971 -0.236712425947189331 0.598713219165802002
0.694433927536010742 -0.94979017972946167 0.531932651996612549
-1.53681492805480957 0.694946169853210449 0.471578478813171387
0.48249700665473938 -1.36505270004272461 0.555522561073303223
-1.30342328548431396 -0.781818747520446777 0.518111765384674072
0.564557433128356934 -1.51323318481445312 0.544907689094543457
-1.53599095344543457 0.713488459587097168 0.456631958484649658
0.470580697059631348 -1.41895413398742676 0.473198473453521729
-1.52842950820922852 -0.541823625564575195 0.589086532592773438
0.782809078693389893 -0.27224278450012207 0.348082602024078369
1.03040575981140137 -0.683512687683105469 0.622115433216094971
0.931957662105560303 1.07625019550323486 0.59904634952545166
1.49152863025665283 -0.569318890571594238 0.586570799350738525
0.204650461673736572 -0.31244504451751709 0.404169380664825439
1.13613474369049072 -0.664235830307006836 0.523223519325256348
0.00637584645301103592 1.8324897289276123 0.625508785247802734
-1.53583121299743652 0.810333073139190674 0.481568038463592529
0.937552690505981445 1.07205939292907715 0.612438976764678955
1.35775268077850342 -0.701436758041381836 0.522477805614471436
1.60190701484680176 -1.20972967147827148 0.543777525424957275
0.749472916126251221 -0.292640417814254761 0.691657364368438721
-0.575269222259521484 -0.0380650907754898071 0.514304399490356445
-0.327167600393295288 0.752252161502838135 0.569759607315063477
1.11099004745483398 -1.72439861297607422 0.399543672800064087
0.821433901786804199 -0.25381314754486084 0.45237964391708374
-0.209728240966796875 -0.140840858221054077 0.526579737663269043
-0.773066997528076172 0.809706807136535645 0.616357743740081787
0.130593955516815186 -0.341176122426986694 0.495078802108764648
0.809150993824005127 -0.606448650360107422 0.50210195779800415
-0.648387432098388672 0.405926048755645752 0.47059980034828186
0.124055095016956329 -0.319620430469512939 0.509930133819580078
1.4081418514251709 -1.22800600528717041 0.489282876253128052
1.53470039367675781 -1.31140518188476562 0.48397529125213623
0.231647789478302002 -0.378220140933990479 0.559536516666412354
1.41903996467590332 -1.09602487087249756 0.461043119430541992
0.913518428802490234 1.01536464691162109 0.603819191455841064
0.898226141929626465 1.05377006530761719 0.625362038612365723
0.896529734134674072 1.03768026828765869 0.680855453014373779
1.76031136512756348 -1.11876356601715088 0.53740161657333374
0.963599741458892822 2.39307308197021484 0.543363392353057861
1.32428514957427979 -0.236007928848266602 0.504718244075775146
1.11573851108551025 -1.36913526058197021 0.47601926326751709
1.39525055885314941 -0.454536259174346924 0.279625684022903442
0.889174401760101318 -0.18504709005355835 0.617493808269500732
0.86874079704284668 1.01811563968658447 0.588263750076293945
0.860619843006134033 1.01648938655853271 0.584144353866577148
-0.74093937873840332 0.881526708602905273 0.595643401145935059
-1.22173190116882324 0.0256318226456642151 0.593558073043823242
-0.743465185165405273 0.844670116901397705 0.577163875102996826
0.891375720500946045 1.04392147064208984 0.651378095149993896
0.81406712532043457 0.745458424091339111 0.578216791152954102
1.1915583610534668 -2.19391441345214844 0.519606471061706543
1.55105364322662354 3.25782012939453125 0.501589536666870117
1.4394756555557251 1.90199744701385498 0.663234710693359375
1.05220305919647217 3.42200660705566406 0.571742713451385498
1.47712278366088867 -1.41810190677642822 0.641189396381378174
-1.53686702251434326 2.15963840484619141 0.492539376020431519
-2.12049007415771484 0.656945705413818359 0.696471452713012695
1.46683943271636963 1.85736179351806641 0.626442432403564453
-1.47489118576049805 0.799077391624450684 0.524603366851806641
1.20353412628173828 -2.29406285285949707 0.536142945289611816
1.20664513111114502 3.88654208183288574 0.518796622753143311
1.22621381282806396 2.59775590896606445 0.616653084754943848
0.9231681227684021 3.60364341735839844 0.504365921020507812
-1.38712394237518311 -2.25286197662353516 0.523594200611114502
1.41558969020843506 1.95967185497283936 0.640936076641082764
0.289414823055267334 -2.21910667419433594 0.541412293910980225
1.8188328742980957 -1.99379324913024902 0.432808279991149902
0.996134161949157715 -1.56639957427978516 0.3064098060131073
-0.286166191101074219 2.93693089485168457 0.472288221120834351
-2.34458827972412109 -1.82832169532775879 0.564808964729309082
-2.34477615356445312 0.735693991184234619 0.862530827522277832
-1.12922751903533936 -2.39410877227783203 0.521653056144714355
1.49235343933105469 -1.68918192386627197 0.70273590087890625
1.06859183311462402 3.18010377883911133 0.539283275604248047
0.937724530696868896 -1.65058493614196777 0.0658247172832489014
-1.25279664993286133 -2.06413412094116211 0.536290645599365234
-2.11496329307556152 -1.91079521179199219 0.577641963958740234
0.571670055389404297 -3.52277994155883789 0.452517569065093994
0.00458958745002746582 2.4742739200592041 0.524156868457794189
0.210310310125350952 -2.2310948371887207 0.476164281368255615
1.73917067050933838 -1.35255551338195801 0.931380629539489746
0.0487672090530395508 2.50238728523254395 0.690444350242614746
1.58128917217254639 -0.667494714260101318 0.475395351648330688
1.21936678886413574 2.06488513946533203 0.584339141845703125
0.0517530441284179688 -0.0135140419006347656 0.219289988279342651
1.4174952507019043 -1.11607468128204346 0.510690629482269287
1.88119292259216309 -1.2936255931854248 0.6894683837890625
0.343888938426971436 -0.633996009826660156 0.525950074195861816
-1.50491678714752197 0.769524812698364258 0.469566792249679565
1.45335805416107178 -0.770488560199737549 0.485975712537765503
-0.971743404865264893 -1.21135032176971436 0.4365273118019104
0.686689257621765137 1.9156029224395752 0.432331740856170654
0.561820089817047119 -1.53564751148223877 0.484762758016586304
1.89560532569885254 0.0846643447875976562 0.385979831218719482
0.0352474376559257507 1.88872611522674561 0.646635234355926514
1.49810075759887695 -0.970230519771575928 0.576487421989440918
0.0173144340515136719 1.82214057445526123 0.662193417549133301
0.816758275032043457 1.81772923469543457 0.680775284767150879
0.977103590965270996 -0.70406949520111084 0.20405907928943634
1.55482065677642822 -1.0979917049407959 0.264718890190124512
1.19795989990234375 2.93531608581542969 0.591227471828460693
1.60816109180450439 -0.708490073680877686 0.609605014324188232
1.20480227470397949 -1.82319033145904541 0.540314912796020508
1.74110770225524902 -0.938087105751037598 0.501089394092559814
-1.47137308120727539 1.03817462921142578 0.451291203498840332
1.2419440746307373 3.56240010261535645 0.505862712860107422
1.39944696426391602 3.48092007637023926 0.55830693244934082
-1.37548160552978516 0.798490166664123535 0.488782107830047607
1.5517805814743042 -0.806803047657012939 0.495679587125778198
0.573854804039001465 3.6710047721862793 0.532919585704803467
1.58159208297729492 -0.672690749168395996 0.625178754329681396
-1.49891328811645508 2.1375279426574707 0.596691489219665527
0.0249617546796798706 1.95783138275146484 0.670175015926361084
1.39873886108398438 3.25627946853637695 0.496549725532531738
