ply
format ascii 1.0
element vertex 256
comment vertices
property float x
property float y
property float z
end_header
0.229707419872283936 -0.103501677513122559 0.476139366626739502
-0.00712573528289794922 -0.201854348182678223 0.44431990385055542
0.129412516951560974 -0.302082479000091553 0.491553336381912231
0.165591239929199219 -0.332409977912902832 0.529024600982666016
0.246045038104057312 -0.335922986268997192 0.571077287197113037
0.212812885642051697 -0.384725391864776611 0.566711544990539551
0.772104740142822266 -0.221384227275848389 0.574743211269378662
0.800164461135864258 -0.210853815078735352 0.654341340065002441
0.732872366905212402 -0.334678798913955688 0.557918310165405273
0.872308790683746338 -0.155228734016418457 0.452848285436630249
0.875134408473968506 -0.210472553968429565 0.637085318565368652
0.859055757522583008 -0.285796701908111572 0.487319737672805786
0.867359757423400879 -0.369863510131835938 0.650884628295898438
-0.73675227165222168 0.890284717082977295 0.615650177001953125
0.813740134239196777 -0.46345442533493042 0.540297627449035645
0.878911375999450684 -0.404388248920440674 0.44804808497428894
0.898901760578155518 -0.458356291055679321 0.474857032299041748
0.939965963363647461 -0.461215317249298096 0.499528259038925171
0.891113579273223877 1.03620147705078125 0.683351397514343262
0.89563065767288208 1.05718183517456055 0.637735724449157715
0.917698323726654053 1.05254673957824707 0.610561251640319824
0.123755939304828644 1.42837333679199219 0.6196022629737854
0.991299867630004883 -0.565862536430358887 0.60762101411819458
1.30800175666809082 0.0308066606521606445 0.557827174663543701
0.928688883781433105 -0.749449014663696289 0.502620518207550049
1.15349793434143066 -0.565980851650238037 0.69588238000869751
-0.84757763147354126 1.27286827564239502 0.615831553936004639
-0.979640722274780273 -0.68020021915435791 0.441471457481384277
0.759782969951629639 -1.00153481960296631 0.504090547561645508
-1.29603183269500732 0.756150364875793457 0.465014755725860596
1.46452796459197998 -0.137361437082290649 0.478435873985290527
-0.964340567588806152 -0.813304662704467773 0.442542105913162231
-0.946175217628479004 -0.853687942028045654 0.607787787914276123
-0.978667914867401123 -0.853442370891571045 0.507517576217651367
-1.00080716609954834 -0.852498650550842285 0.587595760822296143
-1.01498007774353027 -0.866903543472290039 0.602023184299468994
1.2807844877243042 -0.713486850261688232 0.522254824638366699
-0.942202508449554443 -0.954886794090270996 0.467621505260467529
1.29392623901367188 -0.720718324184417725 0.42413601279258728
-0.926099896430969238 -1.00008225440979004 0.443272948265075684
0.0148540884256362915 1.82459366321563721 0.657041013240814209
1.61874985694885254 0.561487853527069092 0.558020234107971191
1.37227892875671387 -0.691508471965789795 0.532562255859375
-1.37130451202392578 0.997979640960693359 0.49048161506652832
1.40378952026367188 -0.642820179462432861 0.356962054967880249
1.40482246875762939 -0.681146919727325439 0.530420422554016113
0.0505131110548973083 1.87258231639862061 0.640862703323364258
-1.21314895153045654 -0.799634099006652832 0.395382195711135864
1.63532137870788574 -0.257718175649642944 0.60499870777130127
0.466417491436004639 -1.38019108772277832 0.528433859348297119
0.419272124767303467 -1.40395593643188477 0.577842295169830322
0.546784937381744385 -1.37535369396209717 0.542657911777496338
-1.23761045932769775 -0.817572593688964844 0.282606601715087891
0.513283669948577881 -1.39150691032409668 0.511535227298736572
1.41325211524963379 -0.780579328536987305 0.563931643962860107
0.453904002904891968 -1.41567504405975342 0.46823430061340332
-1.65426945686340332 0.071946561336517334 0.500467240810394287
1.67755842208862305 0.825542092323303223 0.526625096797943115
1.47892427444458008 -0.745353043079376221 0.642474174499511719
1.50575041770935059 -0.731219291687011719 0.544935107231140137
1.55421566963195801 -0.659101545810699463 0.404107630252838135
1.63923156261444092 1.00330805778503418 0.627134323120117188
1.62411046028137207 -0.581540584564208984 0.693552017211914062
1.61966466903686523 -0.613769769668579102 0.659759819507598877
-0.487587779760360718 -1.47351932525634766 0.568296909332275391
-1.47999966144561768 1.19304323196411133 0.540047645568847656
0.562259256839752197 -1.50578022003173828 0.478761762380599976
0.827912569046020508 1.89458298683166504 0.581545591354370117
0.542253315448760986 -1.53143703937530518 0.530407905578613281
1.47912120819091797 -0.924978256225585938 0.427537977695465088
0.823625564575195312 1.92157530784606934 0.580588936805725098
1.59419214725494385 -0.797925293445587158 0.610732018947601318
1.3489987850189209 -1.1085662841796875 0.543546020984649658
-1.47644233703613281 1.35635590553283691 0.598747372627258301
1.21310865879058838 -1.27375197410583496 0.489173233509063721
-1.48065221309661865 1.37522482872009277 0.65352553129196167
-1.49582135677337646 1.36951756477355957 0.630052566528320312
0.423151135444641113 2.14487695693969727 0.622008085250854492
-1.53704380989074707 1.3787306547164917 0.656502902507781982
-1.68193924427032471 1.17674219608306885 0.513151168823242188
0.734802007675170898 2.10458850860595703 0.65000385046005249
0.0166694521903991699 2.23548054695129395 0.60504150390625
1.47903978824615479 -1.18195903301239014 0.467971265316009521
1.85186111927032471 -0.731184244155883789 0.587837398052215576
-0.515446662902832031 2.2168121337890625 0.652177274227142334
1.5093839168548584 -1.24606096744537354 0.683949112892150879
-0.789142608642578125 -1.67837405204772949 0.543161630630493164
-1.16886281967163086 -1.49102473258972168 0.588459253311157227
1.51180672645568848 -1.32232022285461426 0.688220977783203125
1.63832461833953857 -1.21671712398529053 0.541933715343475342
1.80082535743713379 -1.02468955516815186 0.4445476233959198
1.51920127868652344 -1.35154628753662109 0.539002597332000732
1.46339237689971924 1.88216769695281982 0.647296309471130371
0.350678086280822754 -1.9203498363494873 0.584354519844055176
1.47432136535644531 1.90191507339477539 0.67343604564666748
1.45322000980377197 1.92214739322662354 0.668395638465881348
1.48790121078491211 1.90333080291748047 0.683149933815002441
-1.0350186824798584 2.16464853286743164 0.542051553726196289
-2.03917264938354492 1.0012892484664917 0.59746164083480835
1.08107590675354004 2.22420692443847656 0.561191022396087646
-1.19047975540161133 -1.63729691505432129 0.609157800674438477
0.0040035247802734375 2.49175596237182617 0.634009003639221191
0.0441242754459381104 2.50518441200256348 0.657875537872314453
1.81613600254058838 1.68256759643554688 0.593124032020568848
1.7912590503692627 -1.24651968479156494 0.59981381893157959
0.897371172904968262 -1.89310371875762939 0.43983834981918335
0.804936647415161133 2.41137981414794922 0.622120380401611328
1.61092519760131836 1.94433796405792236 0.601257860660552979
0.230478018522262573 2.5580589771270752 0.467795372009277344
0.5264739990234375 2.52201151847839355 0.526600062847137451
1.50615072250366211 -1.58652257919311523 0.706681787967681885
0.0340459644794464111 -2.09822177886962891 0.477337449789047241
0.0199061036109924316 2.57942628860473633 0.657695889472961426
1.46431517601013184 -1.67904269695281982 0.641957879066467285
2.03448081016540527 -1.10000157356262207 0.461543768644332886
-1.07520794868469238 -1.87848615646362305 0.551054120063781738
0.087843090295791626 2.65737271308898926 0.49202418327331543
1.21085917949676514 2.38010025024414062 0.701723337173461914
-1.0467153787612915 -1.93140578269958496 0.331457704305648804
1.05629479885101318 -1.99484884738922119 0.421073019504547119
-1.38088595867156982 2.23390054702758789 0.564535617828369141
0.25140652060508728 -2.21610379219055176 0.457992196083068848
0.979217588901519775 2.52606725692749023 0.471795409917831421
0.329055637121200562 -2.22330546379089355 0.530366837978363037
1.3260340690612793 2.36867213249206543 0.465869665145874023
-0.0883841663599014282 2.72231578826904297 0.532765746116638184
-0.954237699508666992 2.52021074295043945 0.49601474404335022
0.21200840175151825 -2.26774001121520996 0.528928637504577637
1.92993533611297607 1.87374734878540039 0.94802623987197876
1.14718544483184814 -2.0422518253326416 0.51597297191619873
-1.46581649780273438 2.26545119285583496 0.547887742519378662
-0.41237795352935791 2.7434697151184082 0.486782461404800415
1.33411383628845215 2.4510955810546875 0.608801364898681641
-1.52172517776489258 2.25483441352844238 0.625901341438293457
0.884642064571380615 2.67341971397399902 0.470916628837585449
0.654103636741638184 2.75356125831604004 0.676224768161773682
0.707051396369934082 2.7458498477935791 0.400600135326385498
-1.55035364627838135 2.28387689590454102 0.619114041328430176
1.26893711090087891 -2.08231854438781738 0.443349599838256836
1.61486124992370605 -1.87685370445251465 0.437880456447601318
1.15007162094116211 -2.16470193862915039 0.530649006366729736
-1.0905071496963501 -2.13160109519958496 0.265285223722457886
1.39122676849365234 -2.05428147315979004 0.38932231068611145
-1.32918024063110352 -2.0523982048034668 0.353348374366760254
0.880484342575073242 -2.32500457763671875 0.528830528259277344
1.42628765106201172 -2.08269238471984863 0.453228265047073364
1.23850917816162109 2.68935465812683105 0.577780008316040039
-1.15743982791900635 -2.19221401214599609 0.199285402894020081
-0.812276899814605713 2.83739042282104492 0.642361640930175781
1.79591000080108643 -1.86401581764221191 0.851974427700042725
-0.820946693420410156 2.84909725189208984 0.673657655715942383
-0.867570877075195312 2.840484619140625 0.658754587173461914
-1.93651556968688965 -1.67055559158325195 0.315803557634353638
1.1124579906463623 -2.33072900772094727 0.363849848508834839
1.01434540748596191 2.86955046653747559 0.521345376968383789
1.27616596221923828 2.76844215393066406 0.572049558162689209
0.0522841401398181915 3.05738949775695801 0.694925487041473389
0.0497518107295036316 3.07037544250488281 0.697410285472869873
-1.35514068603515625 2.7116246223449707 0.566608726978302002
1.06472170352935791 2.90405130386352539 0.597382187843322754
0.26595771312713623 3.10266590118408203 0.572839617729187012
0.00733686983585357666 3.12617373466491699 0.709968924522399902
0.0346284806728363037 3.13976740837097168 0.575149178504943848
-1.92013978958129883 -1.88468348979949951 0.231522113084793091
-1.60664033889770508 2.64593029022216797 0.523261308670043945
-2.25080490112304688 -1.56768429279327393 0.634968400001525879
1.32581949234008789 -2.41428351402282715 0.52301943302154541
1.47959494590759277 -2.34312248229980469 0.658899188041687012
1.33594727516174316 -2.43078398704528809 0.510873854160308838
-1.06697320938110352 2.99481964111328125 0.534148931503295898
-1.09184730052947998 -2.50446987152099609 0.240446716547012329
-1.49408113956451416 2.79540395736694336 0.415250003337860107
1.23295736312866211 2.99327993392944336 0.758281886577606201
-2.33664059638977051 -1.60523009300231934 0.635403156280517578
1.24203634262084961 3.01831698417663574 0.752846598625183105
0.424345314502716064 -2.77304649353027344 0.453209400177001953
-1.80298268795013428 2.63782548904418945 0.696044921875
1.76827502250671387 2.75920653343200684 0.643156468868255615
-1.98349332809448242 2.51384925842285156 0.533742189407348633
-1.16260814666748047 -2.57305717468261719 0.662903726100921631
-1.14446866512298584 -2.60533261299133301 0.718142688274383545
-0.0911446362733840942 3.31977272033691406 0.799895167350769043
0.715871632099151611 -2.79009675979614258 0.52308279275894165
0.701082348823547363 -2.79904627799987793 0.492262333631515503
1.32354354858398438 3.08203840255737305 0.620462000370025635
0.737959027290344238 -2.80667805671691895 0.638390779495239258
-1.69235813617706299 2.82842397689819336 0.527094781398773193
0.303300619125366211 -2.88408136367797852 0.575345933437347412
0.731966376304626465 -2.8291165828704834 0.66900789737701416
1.64032185077667236 2.96033000946044922 0.536021053791046143
-2.49514198303222656 -1.57279014587402344 0.122450679540634155
1.37305355072021484 3.11725664138793945 0.574730992317199707
-1.48781728744506836 3.00528049468994141 0.651529550552368164
0.736436784267425537 3.34988498687744141 0.510812163352966309
-2.40313529968261719 -1.80152237415313721 0.572387158870697021
-0.110561802983283997 3.43738126754760742 0.770479679107666016
1.94960105419158936 -2.36463260650634766 0.565945625305175781
-2.29404067993164062 -1.98002839088439941 0.560425758361816406
-2.21263885498046875 -2.05806636810302734 0.218065053224563599
-1.26631665229797363 -2.73287034034729004 0.329201161861419678
1.86971926689147949 2.96116495132446289 0.682380199432373047
-2.71849179267883301 -1.46475875377655029 0.0896000117063522339
-1.77926456928253174 2.97053265571594238 0.390416443347930908
1.45711064338684082 3.21988296508789062 0.700738787651062012
-1.67372190952301025 3.05342292785644531 0.684960901737213135
-1.39594161510467529 -2.72536206245422363 0.27591407299041748
-1.36309695243835449 -2.7507483959197998 0.24790509045124054
-2.26063966751098633 2.63374900817871094 0.635295510292053223
-0.56189429759979248 3.51510787010192871 0.507139086723327637
-2.06188631057739258 -2.32387018203735352 0.21141795814037323
1.23829102516174316 -2.87505960464477539 0.180879265069961548
-2.27753806114196777 2.65744256973266602 0.760504603385925293
0.0787365734577178955 -3.14876222610473633 0.650486767292022705
-2.09566664695739746 2.86659574508666992 0.404552668333053589
-1.74962520599365234 3.1385047435760498 0.525062441825866699
1.26951956748962402 3.46300196647644043 0.54984968900680542
0.838487744331359863 3.61817646026611328 0.603857517242431641
-0.703265964984893799 3.65922093391418457 0.598737120628356934
-2.76181292533874512 -1.86069035530090332 0.26301109790802002
-1.66264617443084717 3.32238078117370605 0.512244105339050293
-0.416988164186477661 3.75058650970458984 0.503274202346801758
-1.74007546901702881 3.30774235725402832 0.586638391017913818
-0.324928402900695801 3.78272271156311035 0.537883341312408447
-2.24437427520751953 3.0040128231048584 0.647955119609832764
0.809459328651428223 3.78468084335327148 0.517220973968505859
1.67236042022705078 -3.0211944580078125 0.438103079795837402
1.68432319164276123 -3.04144096374511719 0.439697682857513428
1.60541749000549316 -3.09697175025939941 0.431715846061706543
1.67734694480895996 -3.07403898239135742 0.594145298004150391
2.4194798469543457 -2.6071467399597168 0.671961307525634766
2.3797907829284668 -2.66630077362060547 0.667465388774871826
-2.21651172637939453 3.21043944358825684 0.41005590558052063
-3.11753273010253906 2.32554244995117188 0.579876303672790527
-2.8297886848449707 2.74409198760986328 0.477456092834472656
1.59907197952270508 -3.2914578914642334 0.314936608076095581
1.26255083084106445 3.98970389366149902 0.580841422080993652
-2.96864986419677734 2.83436965942382812 0.595301270484924316
1.95210182666778564 -3.2744743824005127 0.892421483993530273
1.95771527290344238 -3.28827595710754395 0.888741433620452881
1.95532119274139404 -3.37193131446838379 0.906708717346191406
2.48389673233032227 -3.06823873519897461 0.850364506244659424
-1.72395825386047363 4.02541112899780273 0.835171222686767578
-1.02938079833984375 4.29318428039550781 0.762011528015136719
-1.89221394062042236 3.965972900390625 0.814587235450744629
-1.07478368282318115 4.32383489608764648 0.754731237888336182
-1.0789724588394165 4.33892297744750977 0.759603977203369141
1.02153730392456055 -3.9195702075958252 0.788334667682647705
0.472620129585266113 -4.04307270050048828 0.794352829456329346
1.10666704177856445 -3.95551824569702148 0.770691633224487305
-2.42064070701599121 3.81664872169494629 0.631681442260742188
1.17787253856658936 -4.0032954216003418 0.674295783042907715
1.00062012672424316 -4.05676460266113281 0.740213990211486816
1.77968215942382812 -3.91880512237548828 0.929660379886627197
1.25263619422912598 -4.12885332107543945 0.628413796424865723
1.35153412818908691 -4.16700172424316406 0.738393306732177734
1.47127723693847656 -4.37381792068481445 0.614048957824707031
