ply
format ascii 1.0
element vertex 134
comment vertices
property float x
property float y
property float z
end_header
-1.43295514583587646 2.81165075302124023 0.555961489677429199
-1.5053020715713501 2.84817051887512207 0.513102829456329346
-1.27527368068695068 -2.8524630069732666 0.344105750322341919
-0.00306892627850174904 3.0262916088104248 0.680219829082489014
-0.00299118272960186005 3.03737115859985352 0.682144224643707275
-1.26648843288421631 -2.7906343936920166 0.320104867219924927
0.724950730800628662 -2.87027978897094727 0.50994032621383667
-1.21407961845397949 -2.88315272331237793 0.506561338901519775
-1.21204924583435059 -2.84757351875305176 0.673318266868591309
1.28477227687835693 2.84846973419189453 0.773125886917114258
-1.2109677791595459 -2.84584403038024902 0.674401462078094482
-1.33081018924713135 -2.82499146461486816 0.204731538891792297
1.16427123546600342 2.44341325759887695 0.721810817718505859
-1.22375476360321045 -2.87234830856323242 0.576172411441802979
0.270110845565795898 -2.29024577140808105 0.442699193954467773
1.50277972221374512 1.89708614349365234 0.643441557884216309
1.18866646289825439 2.49803709983825684 0.652885198593139648
-0.00137303769588470459 2.68553423881530762 0.657238960266113281
-0.848180592060089111 2.82028102874755859 0.691089749336242676
-1.54006445407867432 2.26101088523864746 0.605725944042205811
0.259423792362213135 -2.29900264739990234 0.433480441570281982
-1.58310890197753906 2.84823465347290039 0.618417799472808838
-1.50606465339660645 2.281005859375 0.62682420015335083
1.18452227115631104 2.50004386901855469 0.663319528102874756
0.69601064920425415 -2.83718132972717285 0.520043373107910156
-0.844702243804931641 2.82067418098449707 0.692091286182403564
1.51300787925720215 -2.43844151496887207 0.602363049983978271
-0.846281766891479492 2.82474517822265625 0.689638137817382812
0.0132045764476060867 2.72533512115478516 0.647157430648803711
1.19036293029785156 2.50066542625427246 0.683793365955352783
1.19771206378936768 2.4875035285949707 0.648264527320861816
0.736451804637908936 -2.85499429702758789 0.541723668575286865
0.000571489334106445312 2.68348097801208496 0.660230398178100586
1.23341584205627441 2.52354788780212402 0.636207342147827148
0.750533163547515869 -2.83014154434204102 0.644640147686004639
1.0039360523223877 -3.9899747371673584 0.683603286743164062
1.06050372123718262 -3.8779902458190918 0.601912856101989746
1.50320184230804443 -2.44568204879760742 0.60407257080078125
0.977804839611053467 -3.97017788887023926 0.679056882858276367
-1.77005612850189209 4.03951501846313477 0.805218338966369629
0.691661715507507324 -4.13333606719970703 0.85337597131729126
1.22569870948791504 3.09097743034362793 0.726498782634735107
-2.22812175750732422 2.64529156684875488 0.680496513843536377
-1.23268306255340576 -2.89734268188476562 0.689955353736877441
-2.23670005798339844 2.64970993995666504 0.68030315637588501
-1.24307501316070557 -2.90254902839660645 0.708180546760559082
-0.000283196568489074707 2.66265320777893066 0.641223907470703125
-0.0676082521677017212 3.40439367294311523 0.781450629234313965
1.55508089065551758 -2.40763163566589355 0.631705760955810547
-1.23034858703613281 -2.89113974571228027 0.721404373645782471
-1.35462379455566406 -2.94982242584228516 0.171732276678085327
-1.23257124423980713 -2.89614152908325195 0.685382664203643799
0.558258652687072754 -1.41410279273986816 0.513667762279510498
0.552982509136199951 -1.43085741996765137 0.507988452911376953
1.15670311450958252 -0.763195037841796875 0.499083578586578369
0.808525741100311279 -0.54065251350402832 0.67883598804473877
1.42669379711151123 -0.572949469089508057 0.545653820037841797
0.551677405834197998 -1.42974340915679932 0.51513206958770752
0.0214235559105873108 1.82635533809661865 0.654447376728057861
0.885233640670776367 -0.241816014051437378 0.598037481307983398
0.691642224788665771 -1.06818878650665283 0.61873471736907959
-1.48675847053527832 0.78842616081237793 0.491288870573043823
0.551036715507507324 -1.42997002601623535 0.511507630348205566
0.543143868446350098 -1.43094849586486816 0.516334295272827148
-1.48431634902954102 0.806017637252807617 0.476312518119812012
0.549844801425933838 -1.45041251182556152 0.499939888715744019
0.861570537090301514 -0.275107353925704956 0.492899715900421143
1.0904994010925293 -0.687255203723907471 0.639815330505371094
0.94829714298248291 1.0381162166595459 0.613776266574859619
1.42385947704315186 -0.567233741283416748 0.541557788848876953
0.168457180261611938 -0.320389270782470703 0.508587300777435303
1.22382473945617676 -0.688193380832672119 0.580193042755126953
0.00831465795636177063 1.81511998176574707 0.63739311695098877
-1.43731904029846191 0.824861407279968262 0.449525564908981323
0.949775397777557373 1.03762805461883545 0.615158438682556152
1.3873896598815918 -0.650811195373535156 0.562383592128753662
1.51554179191589355 -1.24293315410614014 0.715596199035644531
0.832534313201904297 -0.241165027022361755 0.591537535190582275
0.810714423656463623 -0.260265707969665527 0.572851121425628662
-0.758646368980407715 0.867024719715118408 0.543171346187591553
0.165586158633232117 -0.325765490531921387 0.528956413269042969
0.808126091957092285 -0.535983145236968994 0.626803994178771973
0.164620146155357361 -0.323460191488265991 0.531684458255767822
1.393196702003479 -1.36548840999603271 0.603999316692352295
1.55528485774993896 -1.24481093883514404 0.679855525493621826
0.183803990483283997 -0.312207579612731934 0.534384727478027344
1.52757585048675537 -1.2592090368270874 0.665550410747528076
0.943004846572875977 1.03067398071289062 0.610028088092803955
0.946133315563201904 1.03531050682067871 0.607521891593933105
0.950417578220367432 1.03568637371063232 0.607223093509674072
1.55202722549438477 -1.21036291122436523 0.70178520679473877
0.796435952186584473 -0.232622146606445312 0.590947985649108887
0.941193699836730957 1.03035998344421387 0.603682577610015869
0.942605733871459961 1.03025126457214355 0.603216409683227539
-0.763701856136322021 0.870650053024291992 0.547942101955413818
-0.758824467658996582 0.870330989360809326 0.547805070877075195
0.948095440864562988 1.0347132682800293 0.6065787672996521
0.857992172241210938 0.992093324661254883 0.608392298221588135
1.43627619743347168 1.9418565034866333 0.646352946758270264
1.56585121154785156 -1.34166216850280762 0.67474675178527832
-1.4836047887802124 2.21304941177368164 0.642073631286621094
-2.2215278148651123 0.647340714931488037 0.729649186134338379
1.43286812305450439 1.94021844863891602 0.645234942436218262
-1.43209743499755859 0.812104284763336182 0.45643278956413269
1.43418252468109131 1.95542216300964355 0.640898585319519043
0.259315788745880127 -2.2336268424987793 0.514635026454925537
-2.24115324020385742 0.675308763980865479 0.781874239444732666
1.54822134971618652 -1.62007236480712891 0.697787463665008545
1.17023849487304688 3.10657835006713867 0.675000548362731934
0.0302452836185693741 2.50859785079956055 0.63428652286529541
0.244634121656417847 -2.24514865875244141 0.491251975297927856
0.0260401051491498947 2.52051973342895508 0.647141575813293457
1.43139183521270752 -0.644433200359344482 0.527161657810211182
1.39410161972045898 1.99404573440551758 0.581266641616821289
1.44576919078826904 -1.08880889415740967 0.645719051361083984
0.223645418882369995 -0.40814700722694397 0.610579848289489746
-1.44813299179077148 0.808971047401428223 0.451268047094345093
1.43270134925842285 -0.651936054229736328 0.514760494232177734
0.725980818271636963 1.79709970951080322 0.527825593948364258
0.555282533168792725 -1.45144271850585938 0.485954642295837402
0.00820695236325263977 1.84102857112884521 0.645760297775268555
1.51410043239593506 -1.09941518306732178 0.677335441112518311
0.00332445558160543442 1.83260107040405273 0.647095024585723877
0.713859498500823975 1.75468564033508301 0.667627930641174316
1.48268353939056396 -1.08189034461975098 0.505853891372680664
1.23528206348419189 3.08198761940002441 0.739482462406158447
1.46123349666595459 -0.634925186634063721 0.536272287368774414
1.50049722194671631 -0.919459640979766846 0.58414912223815918
-1.4474494457244873 0.859205007553100586 0.424464821815490723
-1.45453405380249023 0.813252389430999756 0.446205973625183105
1.43686139583587646 -0.657944858074188232 0.51822352409362793
1.45635020732879639 -0.619766592979431152 0.535885274410247803
-1.49085068702697754 2.21743178367614746 0.670235037803649902
0.00937339849770069122 1.92177367210388184 0.649036049842834473
