ply
format ascii 1.0
element vertex 146
comment vertices
property float x
property float y
property float z
end_header
0.202145218849182129 -0.324765533208847046 0.559576511383056641
0.12726244330406189 -0.330414950847625732 0.539218425750732422
0.177743628621101379 -0.329350978136062622 0.540240466594696045
0.184813454747200012 -0.326805740594863892 0.550561964511871338
0.194481819868087769 -0.319345414638519287 0.546293258666992188
0.193269342184066772 -0.321034818887710571 0.550836086273193359
0.79576796293258667 -0.238501444458961487 0.62375950813293457
0.80306398868560791 -0.225299179553985596 0.628394484519958496
0.777876853942871094 -0.257151961326599121 0.61708378791809082
0.826559960842132568 -0.231684863567352295 0.563838720321655273
0.799289941787719727 -0.210041731595993042 0.628420114517211914
0.795493721961975098 -0.216865763068199158 0.604941606521606445
0.783004522323608398 -0.228497698903083801 0.616256773471832275
-0.795110821723937988 0.854861676692962646 0.51678931713104248
0.793745934963226318 -0.268832266330718994 0.55627906322479248
0.8251076340675354 -0.246667966246604919 0.542013406753540039
0.851453959941864014 -0.281601905822753906 0.526115775108337402
0.83826744556427002 -0.312392830848693848 0.520540177822113037
0.949114322662353516 1.03915929794311523 0.623348236083984375
0.945880651473999023 1.04011690616607666 0.622681677341461182
0.943712949752807617 1.03994083404541016 0.626199603080749512
1.11066174507141113 -0.582354247570037842 0.667564868927001953
0.791670262813568115 -0.993182957172393799 0.561976373195648193
-1.4808952808380127 0.831388592720031738 0.455488085746765137
1.1574101448059082 -0.726306796073913574 0.547676682472229004
1.32467961311340332 -0.64857172966003418 0.529481947422027588
0.0373836122453212738 1.88418078422546387 0.633825242519378662
1.33245790004730225 -0.602801024913787842 0.550605595111846924
-1.47172832489013672 0.880365848541259766 0.448170691728591919
1.33945608139038086 -0.620424389839172363 0.551936089992523193
1.33555877208709717 -0.596947312355041504 0.553936660289764404
0.0445354729890823364 1.88945257663726807 0.636912524700164795
0.480963915586471558 -1.39208590984344482 0.511723220348358154
0.477671205997467041 -1.38514995574951172 0.524554252624511719
0.482869446277618408 -1.37951087951660156 0.519554376602172852
0.473949730396270752 -1.38425326347351074 0.514092147350311279
1.33201813697814941 -0.624907135963439941 0.556780576705932617
0.473673105239868164 -1.39763998985290527 0.504271984100341797
1.37331855297088623 -0.610851109027862549 0.566972196102142334
1.34919023513793945 -0.594306826591491699 0.562978446483612061
1.37890243530273438 -0.618481576442718506 0.54844200611114502
1.5171048641204834 -0.593625843524932861 0.587435483932495117
1.48345255851745605 -0.616864323616027832 0.56333470344543457
-1.51481115818023682 1.3044130802154541 0.598036348819732666
0.478001296520233154 -1.37713623046875 0.507728874683380127
0.691960275173187256 1.92847573757171631 0.566392719745635986
0.475034028291702271 -1.37732601165771484 0.51603466272354126
1.377266526222229 -0.754381179809570312 0.494865715503692627
0.69391334056854248 1.93007338047027588 0.567795217037200928
1.45290899276733398 -0.616844356060028076 0.540127277374267578
1.3480454683303833 -1.04612207412719727 0.514331340789794922
-1.51537418365478516 1.35752701759338379 0.645023941993713379
1.37037491798400879 -1.1506195068359375 0.531375229358673096
-1.51765203475952148 1.35616552829742432 0.656363248825073242
-1.51303279399871826 1.3582913875579834 0.647849559783935547
-1.51680552959442139 1.36054301261901855 0.653760910034179688
-1.53297972679138184 1.32372117042541504 0.612455904483795166
0.701552629470825195 2.05655145645141602 0.615495145320892334
0.0224641487002372742 2.4137568473815918 0.597950994968414307
1.43409132957458496 -1.08044755458831787 0.543470799922943115
1.63736891746520996 -0.642240464687347412 0.587409853935241699
1.49081575870513916 -1.18127000331878662 0.646725773811340332
1.47033679485321045 -1.22721397876739502 0.633854568004608154
1.49422991275787354 -1.1627037525177002 0.647294580936431885
1.4957733154296875 -1.23037588596343994 0.664080977439880371
1.4278709888458252 1.89994657039642334 0.658646225929260254
1.43197810649871826 1.90172731876373291 0.667558789253234863
1.42771875858306885 1.90110111236572266 0.66581958532333374
1.43179357051849365 1.9024651050567627 0.668828427791595459
1.19172358512878418 2.38429117202758789 0.651096761226654053
0.0355161875486373901 2.50865817070007324 0.618158042430877686
0.0436721853911876678 2.51121735572814941 0.620322346687316895
1.54227590560913086 -1.22120821475982666 0.655226528644561768
0.829911231994628906 -1.99822235107421875 0.563310563564300537
1.47439765930175781 1.85182130336761475 0.672989547252655029
0.0362260341644287109 2.4944465160369873 0.633764863014221191
1.53052163124084473 -1.46841263771057129 0.741926014423370361
0.235824808478355408 -2.20407867431640625 0.485729902982711792
0.0491925589740276337 2.54136514663696289 0.6625862717628479
1.5818105936050415 -1.65169441699981689 0.720519959926605225
0.0335538163781166077 2.52346587181091309 0.658887624740600586
1.24031376838684082 2.4342188835144043 0.692704498767852783
-1.47950148582458496 2.26725912094116211 0.661613047122955322
0.240239769220352173 -2.21358776092529297 0.44600600004196167
1.08192086219787598 2.56619453430175781 0.57762610912322998
0.239127993583679199 -2.20226216316223145 0.475897520780563354
1.21860229969024658 2.44422554969787598 0.656747341156005859
0.0427554696798324585 2.56208992004394531 0.662724494934082031
0.239845529198646545 -2.21445727348327637 0.477371037006378174
-1.46963655948638916 2.26176118850708008 0.653950273990631104
1.22335588932037354 2.46962404251098633 0.705293059349060059
-1.47330343723297119 2.25634241104125977 0.656101107597351074
-1.47636854648590088 2.26128149032592773 0.655350685119628906
1.49473857879638672 -1.93242347240447998 0.584675192832946777
1.45645987987518311 -1.92927694320678711 0.464985519647598267
1.46743118762969971 -1.92231440544128418 0.489539295434951782
1.21952545642852783 2.45388054847717285 0.715322792530059814
-0.857712090015411377 2.87312674522399902 0.669754147529602051
-0.859901905059814453 2.87394499778747559 0.668347775936126709
-0.851803958415985107 2.87260079383850098 0.667012512683868408
1.07445216178894043 2.7654414176940918 0.658172965049743652
1.21812474727630615 2.52656269073486328 0.740330100059509277
0.0222433973103761673 3.12015438079833984 0.72881627082824707
0.0220791585743427277 3.12020993232727051 0.730081617832183838
-1.42406737804412842 2.5816042423248291 0.628152072429656982
1.11847877502441406 2.78092622756958008 0.732283711433410645
0.0307047069072723389 3.12207484245300293 0.710857570171356201
0.032263629138469696 3.11122679710388184 0.740101218223571777
0.0264519155025482178 3.12988400459289551 0.723207652568817139
-1.4658808708190918 2.66789531707763672 0.550288200378417969
1.48193442821502686 -2.45180225372314453 0.637394130229949951
1.47799861431121826 -2.41975307464599609 0.625929117202758789
1.48428082466125488 -2.45476961135864258 0.634231150150299072
-0.874821662902832031 2.873321533203125 0.655296385288238525
1.21500062942504883 3.02002239227294922 0.748807549476623535
1.21228539943695068 3.02277827262878418 0.745650708675384521
0.661893725395202637 -2.80562353134155273 0.571798205375671387
-2.19660544395446777 2.60901546478271484 0.646961033344268799
-1.17790067195892334 -2.70824575424194336 0.689835488796234131
-1.18011105060577393 -2.71574544906616211 0.728048264980316162
-0.0055896565318107605 3.28001546859741211 0.74491119384765625
0.710686862468719482 -2.79213523864746094 0.470153331756591797
0.708411812782287598 -2.79671144485473633 0.502333700656890869
1.18597865104675293 3.02477836608886719 0.763073742389678955
0.708349287509918213 -2.80248498916625977 0.475914239883422852
-1.58396422863006592 2.90414214134216309 0.487658798694610596
0.709031045436859131 -2.80085587501525879 0.480735838413238525
1.20479726791381836 3.00751185417175293 0.762491583824157715
-1.55824041366577148 2.92015337944030762 0.564325332641601562
-0.0568687878549098969 3.42560768127441406 0.756364047527313232
-1.30896866321563721 -2.83593845367431641 0.267377227544784546
1.23223304748535156 3.06310367584228516 0.798230111598968506
-1.62088954448699951 2.98095345497131348 0.598003923892974854
-1.33131253719329834 -2.82562589645385742 0.151973038911819458
-2.21804594993591309 2.63477516174316406 0.680330276489257812
-2.21138477325439453 2.64217257499694824 0.671379983425140381
-1.73567056655883789 3.00882220268249512 0.541874945163726807
-1.03410637378692627 4.37267494201660156 0.720672667026519775
-1.01818323135375977 4.36384344100952148 0.712999701499938965
-1.01234078407287598 4.36330413818359375 0.712680637836456299
0.993539333343505859 -4.00214433670043945 0.678288161754608154
0.532377064228057861 -4.10392332077026367 0.842291116714477539
1.0301438570022583 -4.01462745666503906 0.665872454643249512
1.04562592506408691 -3.99291801452636719 0.672426581382751465
0.990901172161102295 -4.0327763557434082 0.648556172847747803
1.779915452003479 -3.97315526008605957 1.0098569393157959
