ply
format ascii 1.0
element vertex 256
comment vertices
property float x
property float y
property float z
end_header
0.0122553762048482895 3.42468690872192383 -1.20642721652984619
-0.111378997564315796 3.50008845329284668 -1.2211754322052002
-0.168936952948570251 3.5088508129119873 -1.22298562526702881
-0.185051903128623962 3.46697449684143066 -1.22663486003875732
-0.199010103940963745 3.43978095054626465 -1.22749662399291992
-0.219644308090209961 3.39123821258544922 -1.22990810871124268
-0.142107829451560974 3.26987290382385254 -1.22354698181152344
-0.00792551040649414062 3.2944188117980957 -1.2258751392364502
-0.194468677043914795 3.27258515357971191 -1.2296445369720459
-0.126498505473136902 3.20305585861206055 -1.22114837169647217
-0.318519949913024902 3.88394379615783691 -1.21197772026062012
0.111579187214374542 3.20458149909973145 -1.19820904731750488
-0.158497467637062073 3.10676407814025879 -1.2211308479309082
-0.290512263774871826 3.83980250358581543 -1.11848711967468262
-0.360677719116210938 3.07946276664733887 -1.2201383113861084
-0.290383487939834595 3.84468603134155273 -1.11823618412017822
-0.2893180251121521 3.83710932731628418 -1.12756824493408203
-0.292230397462844849 3.84009504318237305 -1.12007999420166016
-0.346213072538375854 3.02651500701904297 -1.21676456928253174
0.182178705930709839 3.20974373817443848 -1.19495809078216553
0.347852617502212524 3.40210962295532227 -1.21485280990600586
-0.524622321128845215 2.99345016479492188 -1.19666731357574463
-0.447280615568161011 2.94012832641601562 -1.20113253593444824
0.372784554958343506 3.65647077560424805 -1.23128259181976318
-0.118951350450515747 2.85245203971862793 -1.21906721591949463
0.614053606986999512 3.44139814376831055 -1.14720249176025391
-0.80587005615234375 2.93459224700927734 -1.21463990211486816
0.0752968341112136841 4.30251979827880859 -1.21379446983337402
0.654843568801879883 3.3674163818359375 -1.16032350063323975
-0.464507043361663818 2.84512710571289062 -1.21402132511138916
0.152730748057365417 2.71570968627929688 -1.23226761817932129
-0.443907946348190308 2.81194591522216797 -1.22691226005554199
-0.394145965576171875 2.7962188720703125 -1.24008071422576904
-0.826863884925842285 2.91146302223205566 -1.20023608207702637
0.253039509057998657 2.83669471740722656 -1.20021498203277588
0.724426448345184326 3.51238298416137695 -1.07607424259185791
-0.348808526992797852 2.48709988594055176 -1.24704122543334961
-0.597535908222198486 2.61374640464782715 -1.22213578224182129
0.73173367977142334 3.50327515602111816 -1.0844346284866333
-0.817583680152893066 2.58519506454467773 -1.21509861946105957
0.537196993827819824 2.88538241386413574 -1.22080624103546143
0.731591522693634033 3.50815391540527344 -1.11081862449645996
0.602975308895111084 2.90634894371032715 -1.24804091453552246
0.0278324484825134277 2.47147464752197266 -1.23111176490783691
-0.839259743690490723 2.5600438117980957 -1.19798290729522705
0.672468066215515137 2.84124469757080078 -1.26200771331787109
0.172488480806350708 2.5068352222442627 -1.19083917140960693
-0.553117275238037109 2.46922516822814941 -1.17262423038482666
-0.59479367733001709 2.45827293395996094 -1.17295610904693604
0.668690800666809082 2.53040146827697754 -1.2123037576675415
-0.854958832263946533 2.59280872344970703 -1.17638802528381348
0.575741052627563477 2.51717042922973633 -1.24851810932159424
0.233876600861549377 2.32966184616088867 -1.20446681976318359
-0.247087240219116211 2.25075459480285645 -1.17586839199066162
-0.349233150482177734 2.29366111755371094 -1.1465224027633667
-0.133130684494972229 2.24694919586181641 -1.17260491847991943
0.356288403272628784 2.24700379371643066 -1.18697905540466309
0.152074426412582397 2.21859097480773926 -1.17873406410217285
-0.988108277320861816 2.58081674575805664 -1.20359408855438232
-1.1550743579864502 2.67046856880187988 -1.20677542686462402
-0.727079153060913086 2.22273540496826172 -1.16762638092041016
-1.0929110050201416 2.56962895393371582 -1.19591867923736572
-1.06873655319213867 2.60378670692443848 -1.15227830410003662
-0.357697814702987671 2.24435806274414062 -1.14652907848358154
-0.915915548801422119 2.63766193389892578 -1.15683424472808838
-1.02071714401245117 2.51420092582702637 -1.15877342224121094
-0.923816025257110596 2.6307375431060791 -1.15449643135070801
-0.211637139320373535 2.12642860412597656 -1.17498171329498291
-1.00908827781677246 2.51631474494934082 -1.1263124942779541
1.0180816650390625 3.72992587089538574 -1.19135785102844238
-0.931136786937713623 2.62574601173400879 -1.16886579990386963
-0.968291521072387695 2.27505755424499512 -1.18073749542236328
-0.942064285278320312 2.62096643447875977 -1.16916060447692871
-0.925493419170379639 2.58139896392822266 -1.13481462001800537
-0.69800180196762085 2.06367015838623047 -1.16849648952484131
-0.939819037914276123 2.59234452247619629 -1.17632210254669189
0.821095883846282959 2.31806492805480957 -1.19771862030029297
0.69781649112701416 2.24468016624450684 -1.27166485786437988
-1.14269149303436279 3.71160364151000977 -1.08455002307891846
1.22815370559692383 3.6318049430847168 -1.15981900691986084
-0.993012964725494385 2.58511972427368164 -1.16301512718200684
-0.0806772857904434204 1.73829984664916992 -1.2151564359664917
-1.04682958126068115 2.58759784698486328 -1.12036371231079102
-1.22118127346038818 3.89902448654174805 -1.13435757160186768
-0.778314590454101562 2.22353577613830566 -1.165763258934021
-0.942288041114807129 2.26399827003479004 -1.15146374702453613
-1.06173765659332275 2.60913515090942383 -1.11591660976409912
1.04368233680725098 3.93230605125427246 -1.17243421077728271
-0.788818299770355225 2.19757652282714844 -1.15642178058624268
0.86990821361541748 2.1079704761505127 -1.18317949771881104
-1.05804228782653809 2.52918314933776855 -1.14080929756164551
-1.0718843936920166 2.54896712303161621 -1.14959836006164551
-1.05327141284942627 2.4942324161529541 -1.15629720687866211
0.677186906337738037 2.30738568305969238 -1.16562104225158691
1.43554055690765381 3.1494596004486084 -1.2113041877746582
-0.150388479232788086 1.511940598487854 -1.18289065361022949
1.37657618522644043 3.65427184104919434 -1.17602801322937012
1.39191663265228271 3.60952019691467285 -1.18314874172210693
-1.31988418102264404 4.03800773620605469 -1.1053624153137207
-1.07485723495483398 2.46441459655761719 -1.16250324249267578
-0.283465415239334106 1.79590141773223877 -1.15348470211029053
-0.850063979625701904 2.10474967956542969 -1.15698111057281494
1.31518745422363281 3.96478056907653809 -1.16457188129425049
0.598251104354858398 1.9400026798248291 -1.26961326599121094
-1.11059319972991943 2.47855281829833984 -1.14691925048828125
-1.35093891620635986 4.05211067199707031 -1.09992301464080811
0.668182611465454102 2.21510148048400879 -1.14871764183044434
-1.44578921794891357 3.51593494415283203 -1.09374475479125977
0.680170118808746338 2.21139979362487793 -1.16678059101104736
0.678520679473876953 2.21090126037597656 -1.15804600715637207
-0.974933385848999023 2.07176947593688965 -1.13498020172119141
-1.48215401172637939 3.4697260856628418 -1.09627532958984375
1.5876610279083252 2.98865437507629395 -1.23303616046905518
-0.461938977241516113 1.78154838085174561 -1.1360015869140625
-1.56451511383056641 3.4963076114654541 -1.06610357761383057
-0.48022150993347168 1.92976081371307373 -1.12969183921813965
0.456480741500854492 1.84552550315856934 -1.16936051845550537
-0.34712296724319458 1.78127360343933105 -1.13484096527099609
0.697924971580505371 2.19438648223876953 -1.16588485240936279
0.700978636741638184 2.17834615707397461 -1.16934883594512939
1.56073224544525146 3.10959029197692871 -1.21462714672088623
1.18489587306976318 2.58280611038208008 -1.10406076908111572
0.152360528707504272 1.74015164375305176 -1.19057559967041016
-1.64361310005187988 3.65868902206420898 -0.963002204895019531
0.206883847713470459 1.88446998596191406 -1.25639057159423828
-1.46846187114715576 4.10355758666992188 -1.08536827564239502
-0.40864098072052002 1.47151851654052734 -1.1763533353805542
-1.49540305137634277 3.91426634788513184 -0.948990821838378906
-1.50804424285888672 3.66531682014465332 -0.881131470203399658
1.6008533239364624 3.07214570045471191 -1.21303701400756836
-0.615165531635284424 1.68714439868927002 -1.15307283401489258
-0.602181851863861084 1.70647954940795898 -1.14359056949615479
0.28250575065612793 1.76524782180786133 -1.26844644546508789
-0.620484590530395508 1.67499971389770508 -1.14730703830718994
-0.398868441581726074 1.4296189546585083 -1.17073988914489746
0.243580102920532227 1.57009637355804443 -1.19468772411346436
-0.0371725857257843018 1.5237196683883667 -1.13636457920074463
-1.47987651824951172 4.16350412368774414 -1.07697880268096924
-1.52525722980499268 4.02393388748168945 -0.914467930793762207
0.819528281688690186 2.12196636199951172 -1.15577578544616699
-1.80273342132568359 3.16189312934875488 -1.07333707809448242
1.28903448581695557 2.51183652877807617 -1.08489727973937988
-1.23161649703979492 3.74782609939575195 -0.701783180236816406
-1.30048513412475586 4.48355293273925781 -0.848328292369842529
-1.19277346134185791 4.47147178649902344 -0.475203931331634521
-1.42467713356018066 4.4655003547668457 -0.859585881233215332
-0.0305607207119464874 1.33592081069946289 -1.14630436897277832
-0.667504847049713135 1.6262209415435791 -1.14302027225494385
-1.50211048126220703 4.49927568435668945 -0.825854480266571045
-0.791215181350708008 1.4778827428817749 -1.14914655685424805
-0.0563998967409133911 1.36699748039245605 -1.14487934112548828
-1.46700942516326904 4.64439249038696289 -0.584339737892150879
-0.176394104957580566 1.36691153049468994 -1.13622629642486572
-0.0576694607734680176 1.18283319473266602 -1.16439878940582275
1.91821062564849854 2.75937986373901367 -1.23445761203765869
0.927493274211883545 4.7254481315612793 -0.685624897480010986
-0.549128830432891846 1.14863109588623047 -1.17271244525909424
-1.57566630840301514 4.56121301651000977 -0.852494001388549805
-0.0954077988862991333 1.19563460350036621 -1.16873979568481445
-1.93520236015319824 4.05350494384765625 -0.883087038993835449
0.809574723243713379 4.82939815521240234 -0.838641226291656494
-1.8488997220993042 4.21466970443725586 -0.961944520473480225
1.40541660785675049 2.51078510284423828 -1.16132235527038574
-0.228973686695098877 1.06263017654418945 -1.14747262001037598
-0.831795990467071533 1.77901947498321533 -1.12242972850799561
-0.816716313362121582 1.76581454277038574 -1.12172126770019531
1.32423007488250732 4.67793941497802734 -0.831345856189727783
-2.00223135948181152 4.19971561431884766 -0.869222044944763184
-0.824143409729003906 1.71039819717407227 -1.11337816715240479
-0.634982168674468994 1.39645040035247803 -1.12422871589660645
0.967031300067901611 4.94117832183837891 -0.871240139007568359
1.08057355880737305 4.89005851745605469 -0.923025667667388916
1.41774094104766846 4.65077018737792969 -0.642873823642730713
-0.709989070892333984 1.38454818725585938 -1.13238835334777832
-1.87243342399597168 4.53952217102050781 -0.815599441528320312
-0.774504899978637695 1.62747073173522949 -1.10380899906158447
1.5348045825958252 2.44354581832885742 -1.20055615901947021
0.797448694705963135 4.99480867385864258 -0.45849272608757019
-0.716785073280334473 1.55831170082092285 -1.10812413692474365
-2.4940955638885498 3.92183256149291992 -0.795446991920471191
-1.88167071342468262 4.61517333984375 -0.791438698768615723
-0.66282576322555542 1.48396706581115723 -1.11258840560913086
1.77016985416412354 4.23632144927978516 -0.93292003870010376
-1.74325287342071533 4.86008071899414062 -0.936096489429473877
1.63652706146240234 4.4591517448425293 -1.00855576992034912
-2.04882717132568359 4.66620254516601562 -0.786085367202758789
-2.25307559967041016 4.12998056411743164 -0.637310385704040527
-1.00065386295318604 4.78114748001098633 -0.446288794279098511
1.47504353523254395 4.82297945022583008 -0.924916982650756836
1.22568011283874512 5.06830024719238281 -0.477848738431930542
1.68783068656921387 4.52684688568115234 -1.009116530418396
1.8369147777557373 4.54342317581176758 -0.866709709167480469
-2.21274495124816895 4.12603425979614258 -0.627935886383056641
1.66345620155334473 4.68154430389404297 -0.952922463417053223
-1.5933082103729248 5.08782672882080078 -0.608571052551269531
0.317475825548171997 1.55315279960632324 -1.11127054691314697
-2.35387468338012695 4.28955173492431641 -1.1204226016998291
0.89913785457611084 5.30789279937744141 -0.894830465316772461
-2.46305489540100098 4.19779872894287109 -0.766819655895233154
-1.58668076992034912 4.96783971786499023 -0.94687730073928833
0.883999526500701904 5.40206193923950195 -0.639729142189025879
-2.48897147178649902 4.03907918930053711 -0.779762208461761475
0.288677901029586792 1.49625945091247559 -1.13345503807067871
0.368966847658157349 1.49004065990447998 -1.13550364971160889
2.24825429916381836 4.17317867279052734 -0.95573890209197998
-1.99620914459228516 4.86700534820556641 -1.07060086727142334
2.08233880996704102 4.30064678192138672 -1.05899631977081299
2.07087063789367676 4.33181333541870117 -1.06032586097717285
0.301610171794891357 1.45409774780273438 -1.09336364269256592
-2.64802074432373047 4.22938203811645508 -0.836237072944641113
-2.24451780319213867 4.6602787971496582 -0.528207778930664062
1.57736420631408691 4.97828006744384766 -1.00751781463623047
1.14933979511260986 5.15123319625854492 -0.441984832286834717
0.112608939409255981 5.70289754867553711 -0.46114543080329895
2.41164684295654297 3.78230404853820801 -0.917280495166778564
-2.14774179458618164 4.88808202743530273 -0.995826005935668945
2.22177410125732422 4.02037286758422852 -0.573215603828430176
1.5379326343536377 5.01589393615722656 -0.481602221727371216
2.34536838531494141 3.79257535934448242 -0.814409255981445312
-2.14920234680175781 4.97069406509399414 -0.947840273380279541
2.29958033561706543 4.00030517578125 -0.688733160495758057
0.897315859794616699 5.42634296417236328 -1.05169188976287842
-1.6040496826171875 5.27719354629516602 -1.13601088523864746
-2.78552842140197754 4.26153326034545898 -0.807928323745727539
-2.50330996513366699 4.65948486328125 -0.965567708015441895
1.53137946128845215 4.86699962615966797 -0.369915187358856201
-2.25324392318725586 4.8746495246887207 -0.891787707805633545
0.141509473323822021 5.81936788558959961 -0.612629294395446777
-1.74466085433959961 5.38277149200439453 -1.09610235691070557
2.34329438209533691 3.89962625503540039 -0.490392208099365234
-2.28250217437744141 4.94464206695556641 -0.796037673950195312
-2.25701713562011719 5.30869102478027344 -1.13651394844055176
0.354725778102874756 5.85518550872802734 -0.841061174869537354
1.12568795680999756 5.41859865188598633 -0.324222415685653687
1.5526118278503418 5.17679071426391602 -0.3489266037940979
0.768447577953338623 5.8144688606262207 -0.67572629451751709
1.10721492767333984 5.40702438354492188 0.0268937796354293823
0.905198454856872559 5.73271989822387695 -0.994453012943267822
-1.68355512619018555 5.47345876693725586 -0.958283960819244385
-1.90680408477783203 5.47819662094116211 -0.831947207450866699
1.50010478496551514 5.02462148666381836 0.0772362202405929565
-1.57608604431152344 5.54283332824707031 -0.980248987674713135
0.249237954616546631 5.97243452072143555 -1.01301765441894531
0.549229025840759277 5.96523523330688477 -0.876899540424346924
1.49036312103271484 4.89516115188598633 0.283949524164199829
-0.0927837789058685303 6.09531259536743164 -1.04528748989105225
1.34615421295166016 4.98116254806518555 0.404904335737228394
0.130796313285827637 6.1539921760559082 -0.916378617286682129
-0.150885522365570068 6.20543384552001953 -0.984239399433135986
0.175661861896514893 6.17633056640625 -0.938471496105194092
0.103553146123886108 6.26373815536499023 -0.941154956817626953
0.288490653038024902 6.16035938262939453 -0.572050034999847412
-1.50449740886688232 6.06834506988525391 -0.919524192810058594
-1.28155040740966797 6.08329057693481445 -0.670032203197479248
-2.3729403018951416 6.06173801422119141 -0.911867260932922363
-1.86557412147521973 6.33254575729370117 -0.787485420703887939
