ply
format ascii 1.0
element vertex 49
comment vertices
property float x
property float y
property float z
end_header
0.0122553762048482895 3.42468690872192383 -1.20642721652984619
-0.111378997564315796 3.50008845329284668 -1.2211754322052002
-0.168936952948570251 3.5088508129119873 -1.22298562526702881
-0.185051903128623962 3.46697449684143066 -1.22663486003875732
-0.199010103940963745 3.43978095054626465 -1.22749662399291992
-0.219644308090209961 3.39123821258544922 -1.22990810871124268
-0.142107829451560974 3.26987290382385254 -1.22354698181152344
-0.00792551040649414062 3.2944188117980957 -1.2258751392364502
-0.194468677043914795 3.27258515357971191 -1.2296445369720459
-0.126498505473136902 3.20305585861206055 -1.22114837169647217
0.111579187214374542 3.20458149909973145 -1.19820904731750488
-0.290512263774871826 3.83980250358581543 -1.11848711967468262
-0.290383487939834595 3.84468603134155273 -1.11823618412017822
-0.2893180251121521 3.83710932731628418 -1.12756824493408203
-0.292230397462844849 3.84009504318237305 -1.12007999420166016
0.182178705930709839 3.20974373817443848 -1.19495809078216553
0.614053606986999512 3.44139814376831055 -1.14720249176025391
0.654843568801879883 3.3674163818359375 -1.16032350063323975
0.724426448345184326 3.51238298416137695 -1.07607424259185791
0.73173367977142334 3.50327515602111816 -1.0844346284866333
0.731591522693634033 3.50815391540527344 -1.11081862449645996
-0.915915548801422119 2.63766193389892578 -1.15683424472808838
-0.923816025257110596 2.6307375431060791 -1.15449643135070801
-0.931136786937713623 2.62574601173400879 -1.16886579990386963
-0.942064285278320312 2.62096643447875977 -1.16916060447692871
-0.925493419170379639 2.58139896392822266 -1.13481462001800537
-0.939819037914276123 2.59234452247619629 -1.17632210254669189
-0.993012964725494385 2.58511972427368164 -1.16301512718200684
-1.04682958126068115 2.58759784698486328 -1.12036371231079102
-1.06173765659332275 2.60913515090942383 -1.11591660976409912
-1.05804228782653809 2.52918314933776855 -1.14080929756164551
-1.0718843936920166 2.54896712303161621 -1.14959836006164551
-1.05327141284942627 2.4942324161529541 -1.15629720687866211
0.677186906337738037 2.30738568305969238 -1.16562104225158691
-1.07485723495483398 2.46441459655761719 -1.16250324249267578
-1.11059319972991943 2.47855281829833984 -1.14691925048828125
0.668182611465454102 2.21510148048400879 -1.14871764183044434
0.680170118808746338 2.21139979362487793 -1.16678059101104736
0.678520679473876953 2.21090126037597656 -1.15804600715637207
0.697924971580505371 2.19438648223876953 -1.16588485240936279
0.700978636741638184 2.17834615707397461 -1.16934883594512939
1.18489587306976318 2.58280611038208008 -1.10406076908111572
0.819528281688690186 2.12196636199951172 -1.15577578544616699
1.28903448581695557 2.51183652877807617 -1.08489727973937988
1.40541660785675049 2.51078510284423828 -1.16132235527038574
0.317475825548171997 1.55315279960632324 -1.11127054691314697
0.288677901029586792 1.49625945091247559 -1.13345503807067871
0.368966847658157349 1.49004065990447998 -1.13550364971160889
0.301610171794891357 1.45409774780273438 -1.09336364269256592
