ply
format ascii 1.0
element vertex 256
comment vertices
property float x
property float y
property float z
end_header
-0.0161820054054260254 3.44169282913208008 -1.17424821853637695
-0.120075628161430359 3.54348945617675781 -1.20874810218811035
-0.168096095323562622 3.55846786499023438 -1.21746587753295898
-0.187588721513748169 3.52672171592712402 -1.22756171226501465
-0.200744807720184326 3.50531792640686035 -1.23099374771118164
-0.216278702020645142 3.46264982223510742 -1.23377084732055664
-0.144037589430809021 3.33348393440246582 -1.21852195262908936
-0.0572530031204223633 3.31769442558288574 -1.21995437145233154
-0.189302325248718262 3.35435080528259277 -1.22944903373718262
-0.13507351279258728 3.27933168411254883 -1.22305965423583984
-0.170579910278320312 3.79819703102111816 -1.19433093070983887
0.0524975955486297607 3.2469484806060791 -1.21876442432403564
-0.161031469702720642 3.22465324401855469 -1.22041690349578857
-0.265282928943634033 3.85139250755310059 -1.08224809169769287
-0.266386806964874268 3.2405858039855957 -1.21123707294464111
-0.273576021194458008 3.86822676658630371 -1.08559310436248779
-0.291121542453765869 3.8599238395690918 -1.1257016658782959
-0.309109032154083252 3.85161638259887695 -1.1290055513381958
-0.249232381582260132 3.18435788154602051 -1.21402037143707275
0.186891824007034302 3.2280116081237793 -1.2135852575302124
0.331219613552093506 3.40788722038269043 -1.21169626712799072
-0.351270407438278198 3.17090559005737305 -1.1926267147064209
-0.320429414510726929 3.13167333602905273 -1.20208454132080078
0.400435030460357666 3.56827306747436523 -1.22210860252380371
-0.158980309963226318 3.03543281555175781 -1.22753274440765381
0.448002457618713379 3.46846723556518555 -1.18646979331970215
-0.463436812162399292 3.11519789695739746 -1.20015883445739746
0.0656577795743942261 4.08823013305664062 -1.19631862640380859
0.524450957775115967 3.35612726211547852 -1.18226432800292969
-0.378965079784393311 2.964263916015625 -1.19531834125518799
0.000674262642860412598 2.88967299461364746 -1.25822591781616211
-0.370311319828033447 2.93208909034729004 -1.21060013771057129
-0.339576005935668945 2.91591143608093262 -1.22958695888519287
-0.553110301494598389 2.99943852424621582 -1.18234002590179443
0.203332021832466125 2.82966375350952148 -1.21227538585662842
0.712056398391723633 3.52749872207641602 -1.08376932144165039
-0.29180145263671875 2.77447080612182617 -1.19695663452148438
-0.471531569957733154 2.84765100479125977 -1.20714926719665527
0.744451165199279785 3.50665831565856934 -1.09315919876098633
-0.555942654609680176 2.86930608749389648 -1.19260120391845703
0.438968360424041748 2.85863614082336426 -1.22004818916320801
0.803281664848327637 3.47019410133361816 -1.13416635990142822
0.522720396518707275 2.88433027267456055 -1.2480015754699707
0.0319153852760791779 2.61607170104980469 -1.27272212505340576
-0.577735185623168945 2.73176980018615723 -1.1957327127456665
0.599386811256408691 2.84585404396057129 -1.27207863330841064
-0.0764817595481872559 2.50577974319458008 -1.16721498966217041
-0.477871626615524292 2.58006191253662109 -1.15564417839050293
-0.520400166511535645 2.5804905891418457 -1.15880060195922852
0.338981181383132935 2.55779099464416504 -1.18545901775360107
-0.632826030254364014 2.59738588333129883 -1.15167856216430664
0.385708510875701904 2.54710626602172852 -1.26127862930297852
0.0100646428763866425 2.42557692527770996 -1.20588827133178711
-0.314939975738525391 2.41665077209472656 -1.12505102157592773
-0.389715820550918579 2.42710590362548828 -1.14509201049804688
-0.230670526623725891 2.38252162933349609 -1.12946677207946777
0.078664928674697876 2.38031482696533203 -1.15391290187835693
-0.0107869748026132584 2.36565566062927246 -1.15842854976654053
-0.71253591775894165 2.55732488632202148 -1.18992173671722412
-0.767007827758789062 2.58524084091186523 -1.17593228816986084
-0.578813433647155762 2.45301318168640137 -1.12825894355773926
-0.742766976356506348 2.55042624473571777 -1.15631985664367676
-0.850382328033447266 2.62349748611450195 -1.12575852870941162
-0.417642742395401001 2.37697458267211914 -1.15463876724243164
-0.89967191219329834 2.6507565975189209 -1.1287531852722168
-0.808494329452514648 2.56492781639099121 -1.13336086273193359
-0.906465053558349609 2.64454340934753418 -1.1257634162902832
-0.277146428823471069 2.32301664352416992 -1.13007760047912598
-0.823481500148773193 2.55715537071228027 -1.08696126937866211
1.13941049575805664 3.57689619064331055 -1.19833791255950928
-0.917539596557617188 2.63901162147521973 -1.14778637886047363
-0.687333464622497559 2.45886564254760742 -1.15263247489929199
-0.92742002010345459 2.63732433319091797 -1.15045559406280518
-0.884324908256530762 2.57579302787780762 -1.08483505249023438
-0.552874743938446045 2.36761808395385742 -1.13128018379211426
-0.914637088775634766 2.59451866149902344 -1.15046525001525879
0.539835810661315918 2.43366599082946777 -1.22588634490966797
0.417800724506378174 2.38371634483337402 -1.29383218288421631
-1.3216552734375 3.76575517654418945 -1.02570068836212158
1.21160781383514404 3.54347634315490723 -1.17499947547912598
-0.980534553527832031 2.60263752937316895 -1.15473628044128418
-0.127494722604751587 2.22002315521240234 -1.13834106922149658
-1.02958464622497559 2.62451291084289551 -1.09093952178955078
-1.32944941520690918 3.91493654251098633 -1.11987638473510742
-0.686616480350494385 2.34330272674560547 -1.11324453353881836
-0.786901593208312988 2.39500308036804199 -1.09627580642700195
-1.08637094497680664 2.64302730560302734 -1.08679044246673584
1.22135210037231445 3.87467479705810547 -1.17854964733123779
-0.701965808868408203 2.32488203048706055 -1.09742152690887451
0.539224982261657715 2.31963253021240234 -1.20533812046051025
-1.03129160404205322 2.55109977722167969 -1.11975955963134766
-1.06082963943481445 2.57462382316589355 -1.13133180141448975
-1.01572632789611816 2.51814675331115723 -1.14340972900390625
0.590909600257873535 2.30259275436401367 -1.15022552013397217
1.24516749382019043 3.12949037551879883 -1.24728190898895264
-0.14940941333770752 2.1268000602722168 -1.13632559776306152
1.31719160079956055 3.58138942718505859 -1.20274019241333008
1.3251117467880249 3.551605224609375 -1.21413719654083252
-1.39602768421173096 4.01366472244262695 -1.09220075607299805
-1.03791356086730957 2.48764777183532715 -1.15015411376953125
-0.255058169364929199 2.11087274551391602 -1.13422739505767822
-0.717497110366821289 2.24949026107788086 -1.08862900733947754
1.31760251522064209 3.82430648803710938 -1.1817469596862793
0.180290311574935913 2.13868355751037598 -1.30041718482971191
-1.08492743968963623 2.50243330001831055 -1.12322819232940674
-1.42136073112487793 4.02630996704101562 -1.09117794036865234
0.648273944854736328 2.26388096809387207 -1.12516200542449951
-1.51557934284210205 3.65034651756286621 -1.04276919364929199
0.641505897045135498 2.25017023086547852 -1.15933668613433838
0.643612921237945557 2.24544143676757812 -1.14394891262054443
-0.857928156852722168 2.28079605102539062 -1.06976151466369629
-1.5401766300201416 3.61742639541625977 -1.03246033191680908
1.28275108337402344 2.98184776306152344 -1.27650833129882812
-0.376205891370773315 2.06495761871337891 -1.09302353858947754
-1.56066679954528809 3.65918254852294922 -0.998818278312683105
-0.490324050188064575 2.0806889533996582 -1.10559070110321045
0.169713571667671204 2.03960204124450684 -1.13371789455413818
-0.326813697814941406 2.0363776683807373 -1.10388469696044922
0.730907559394836426 2.24933528900146484 -1.17271721363067627
0.687653064727783203 2.21582794189453125 -1.17649662494659424
1.36394262313842773 3.08910536766052246 -1.25510740280151367
1.17473185062408447 2.6484529972076416 -1.126708984375
0.0244987905025482178 2.00144863128662109 -1.1285325288772583
-1.58027970790863037 3.7400367259979248 -0.879564046859741211
0.0861452966928482056 2.02302694320678711 -1.29114341735839844
-1.4810028076171875 4.13129425048828125 -1.09747731685638428
-0.282721489667892456 1.99241733551025391 -1.1276322603225708
-1.55178976058959961 3.9416506290435791 -0.807185888290405273
-1.5613405704498291 3.84571528434753418 -0.706083297729492188
1.39850711822509766 3.06776785850524902 -1.25348567962646484
-0.441750615835189819 2.00528812408447266 -1.11825680732727051
-0.443194866180419922 2.00229883193969727 -1.10005271434783936
0.137924611568450928 1.99614286422729492 -1.298789381980896
-0.448451519012451172 1.99707317352294922 -1.10704159736633301
-0.265975415706634521 1.96177840232849121 -1.12621986865997314
0.0811353474855422974 1.95176339149475098 -1.12042224407196045
-0.0950912311673164368 1.92766928672790527 -1.11071264743804932
-1.52483570575714111 4.17826461791992188 -1.06493425369262695
-1.56042754650115967 4.06532478332519531 -0.777405798435211182
0.89862746000289917 2.25395107269287109 -1.24046838283538818
-1.68532872200012207 3.51635098457336426 -0.994132757186889648
1.26342618465423584 2.60646963119506836 -1.10958194732666016
-1.53058862686157227 4.05070781707763672 -0.523536026477813721
-1.36630654335021973 4.49680614471435547 -0.859818816184997559
-1.25134336948394775 4.55095195770263672 -0.51818549633026123
-1.45918667316436768 4.40135574340820312 -0.855713009834289551
-0.0362489968538284302 1.86836886405944824 -1.1249701976776123
-0.57655864953994751 1.93214154243469238 -1.12546932697296143
-1.47303140163421631 4.42279052734375 -0.815094649791717529
-0.633256733417510986 1.93095755577087402 -1.11610221862792969
-0.0883352234959602356 1.83083474636077881 -1.13275039196014404
-1.37766265869140625 4.52504873275756836 -0.577008903026580811
-0.212615311145782471 1.81988739967346191 -1.11643481254577637
-0.142825469374656677 1.81025815010070801 -1.12781918048858643
1.49834704399108887 2.87408328056335449 -1.27912116050720215
1.07281732559204102 4.76970148086547852 -0.658867835998535156
-0.400980830192565918 1.82465684413909912 -1.1123279333114624
-1.50619816780090332 4.47322559356689453 -0.832037925720214844
-0.116251707077026367 1.78604221343994141 -1.14301609992980957
-1.67860865592956543 4.15143394470214844 -0.746046602725982666
1.00917255878448486 4.88299560546875 -0.825303792953491211
-1.6605219841003418 4.22808122634887695 -0.806583106517791748
1.37540137767791748 2.55363917350769043 -1.30797076225280762
-0.270985186100006104 1.75976657867431641 -1.09296846389770508
-0.731201112270355225 1.87431967258453369 -1.10255694389343262
-0.727768182754516602 1.87051773071289062 -1.10300874710083008
1.24098777770996094 4.72350835800170898 -0.798029661178588867
-1.70144355297088623 4.23158025741577148 -0.757818460464477539
-0.709945559501647949 1.83416378498077393 -1.09204685688018799
-0.500282466411590576 1.76044917106628418 -1.10365736484527588
1.02397787570953369 4.96085214614868164 -0.849570155143737793
1.10155236721038818 4.9092259407043457 -0.913263559341430664
1.34155488014221191 4.62492561340332031 -0.645853936672210693
-0.580493330955505371 1.7663576602935791 -1.10601627826690674
-1.65719068050384521 4.41668605804443359 -0.768433272838592529
-0.672617495059967041 1.78305363655090332 -1.08807110786437988
1.38956797122955322 2.44019055366516113 -1.31503796577453613
0.939462602138519287 4.98550510406494141 -0.486359357833862305
-0.643271923065185547 1.75355339050292969 -1.09421122074127197
-1.78068423271179199 4.13857316970825195 -0.603183746337890625
-1.65433084964752197 4.47202491760253906 -0.750639259815216064
-0.609663128852844238 1.72940516471862793 -1.09826242923736572
1.57327377796173096 4.41230392456054688 -0.839781761169433594
-1.58049988746643066 4.64047861099243164 -0.951046109199523926
1.52583861351013184 4.52827835083007812 -0.980752766132354736
-1.6271665096282959 4.56091785430908203 -0.699385941028594971
-1.77188026905059814 4.19753408432006836 -0.473173350095748901
-1.24741935729980469 4.9337153434753418 -0.475222140550613403
1.35626697540283203 4.8000941276550293 -0.880071640014648438
1.14387989044189453 4.95844888687133789 -0.57117992639541626
1.55058968067169189 4.57474184036254883 -1.00210762023925781
1.55276572704315186 4.57234716415405273 -0.793576300144195557
-1.82371008396148682 4.20261240005493164 -0.473333835601806641
1.52304339408874512 4.66447734832763672 -0.933461129665374756
-1.40626621246337891 4.90108489990234375 -0.573283553123474121
0.24042809009552002 1.57679152488708496 -1.12398266792297363
-1.88848757743835449 4.2818760871887207 -1.07273662090301514
0.991902410984039307 5.18428754806518555 -0.835572242736816406
-1.87862241268157959 4.2573094367980957 -0.617151618003845215
-1.51885497570037842 4.89265108108520508 -0.950523316860198975
0.97418743371963501 5.19698333740234375 -0.654828488826751709
-1.89799022674560547 4.25373458862304688 -0.606446504592895508
0.191767111420631409 1.52889847755432129 -1.15513956546783447
0.289769351482391357 1.54236412048339844 -1.17612719535827637
1.73627734184265137 4.4122614860534668 -0.849382996559143066
-1.72401666641235352 4.69012928009033203 -1.06860446929931641
1.79538416862487793 4.33859014511108398 -1.0571521520614624
1.7933880090713501 4.35628604888916016 -1.06032919883728027
0.205613613128662109 1.48875629901885986 -1.10143363475799561
-1.93145132064819336 4.30924224853515625 -0.632821798324584961
-1.88018798828125 4.35648345947265625 -0.446851581335067749
1.46703553199768066 4.91254711151123047 -1.04259538650512695
1.16619265079498291 5.12783050537109375 -0.532593369483947754
0.417331427335739136 5.48552370071411133 -0.487060725688934326
1.94086658954620361 4.06751585006713867 -0.804943740367889404
-1.82846033573150635 4.66118192672729492 -0.966855049133300781
1.89702737331390381 4.09140825271606445 -0.510769128799438477
1.48022186756134033 4.87388706207275391 -0.538049459457397461
1.95746934413909912 4.03081178665161133 -0.674421012401580811
-1.80631017684936523 4.72999191284179688 -0.923266470432281494
1.9432530403137207 4.08190393447875977 -0.625170111656188965
0.829931795597076416 5.44529056549072266 -1.03540384769439697
-1.50932633876800537 5.08404970169067383 -1.13410496711730957
-2.0046391487121582 4.35730123519897461 -0.609176337718963623
-1.96923148632049561 4.51506757736206055 -0.841537833213806152
1.53990006446838379 4.86117410659790039 -0.463352739810943604
-1.8998405933380127 4.66550779342651367 -0.844532251358032227
0.467808425426483154 5.58850955963134766 -0.606939971446990967
-1.50646531581878662 5.16069746017456055 -1.06967329978942871
2.00769925117492676 4.01621294021606445 -0.426433145999908447
-1.9348074197769165 4.68915557861328125 -0.742910504341125488
-1.71490752696990967 5.00639486312866211 -1.08966851234436035
0.549060583114624023 5.65967082977294922 -0.813525617122650146
1.11480271816253662 5.29685020446777344 -0.279393374919891357
1.53458070755004883 4.97849416732788086 -0.369500935077667236
0.686855792999267578 5.64300966262817383 -0.691390693187713623
1.09363234043121338 5.04412412643432617 0.25290641188621521
0.785076260566711426 5.64163064956665039 -1.00497591495513916
-1.46184134483337402 5.35104799270629883 -0.919584512710571289
-1.48326826095581055 5.34282398223876953 -0.761887490749359131
1.50586080551147461 4.65922927856445312 0.301676154136657715
-1.40882372856140137 5.44604063034057617 -0.944718360900878906
0.50301969051361084 5.80683612823486328 -0.997269213199615479
0.670803487300872803 5.76710128784179688 -0.879282295703887939
1.50485837459564209 4.49911642074584961 0.509990811347961426
0.333678483963012695 5.89449167251586914 -1.0110093355178833
1.3937838077545166 4.56737613677978516 0.641619682312011719
0.435938268899917603 5.91734886169433594 -0.888296723365783691
0.333273768424987793 5.94663715362548828 -0.946600973606109619
0.453683316707611084 5.93691778182983398 -0.9171409010887146
0.459678351879119873 5.96699714660644531 -0.914767444133758545
0.355494916439056396 5.99470949172973633 -0.597489416599273682
-1.29699611663818359 5.83801698684692383 -0.912258028984069824
-1.27273392677307129 5.94404745101928711 -0.581850767135620117
-1.58037972450256348 5.87428188323974609 -0.739890813827514648
-1.43398761749267578 6.02056217193603516 -0.702617347240447998
