ply
format ascii 1.0
element vertex 256
comment vertices
property float x
property float y
property float z
end_header
0.986326158046722412 3.64405369758605957 -1.13713109493255615
-2.85452127456665039 1.45660054683685303 -0.837446391582489014
0.178002268075942993 1.36111748218536377 -1.14103281497955322
0.0111438184976577759 3.42187595367431641 -0.951261043548583984
1.15334153175354004 4.17423677444458008 0.0325394719839096069
-0.0351749733090400696 2.69960212707519531 -1.1536567211151123
1.11524474620819092 2.67641067504882812 -1.09862005710601807
-2.13701677322387695 2.51514434814453125 -1.15632903575897217
-1.19258487224578857 3.63273334503173828 -0.498323678970336914
-1.04067039489746094 3.50883722305297852 -1.16037356853485107
-0.580016374588012695 1.9745488166809082 -1.15931987762451172
0.74169158935546875 4.21997451782226562 -0.900287032127380371
0.192991197109222412 2.93529605865478516 -1.17431890964508057
0.347703427076339722 3.84958887100219727 -0.676813244819641113
0.938619434833526611 3.40264678001403809 -1.05792403221130371
0.678857505321502686 2.21108603477478027 -1.09981024265289307
-1.18770933151245117 1.48179483413696289 -1.15327930450439453
-0.280887365341186523 3.9205327033996582 -1.09906625747680664
-1.89579963684082031 4.00210094451904297 -0.968643844127655029
0.262046366930007935 3.66514730453491211 -0.804714202880859375
0.751823961734771729 3.55082917213439941 -1.11113202571868896
-0.163017451763153076 2.37590622901916504 -1.14178931713104248
-1.11112987995147705 2.38502979278564453 -1.10040867328643799
-1.0923771858215332 2.48168516159057617 -1.05331730842590332
1.18002927303314209 2.97374892234802246 -1.11253666877746582
-0.290058255195617676 3.90526056289672852 -1.12603616714477539
1.10303735733032227 2.62104892730712891 -1.09789597988128662
0.238392025232315063 4.04942560195922852 -1.20626509189605713
0.772071361541748047 3.51806998252868652 -1.11752593517303467
0.223998963832855225 2.72971463203430176 -1.15580439567565918
-0.462563216686248779 1.93343722820281982 -1.21570682525634766
1.38366639614105225 1.05538439750671387 -0.935812890529632568
0.551091492176055908 3.29983139038085938 -1.10843276977539062
-1.67312479019165039 2.57868790626525879 -1.12313473224639893
1.25225257873535156 3.98052549362182617 -0.291981101036071777
-1.50767099857330322 3.04683828353881836 -0.44069024920463562
-0.209302365779876709 2.26902365684509277 -1.18737781047821045
0.534558475017547607 3.65767908096313477 -1.04537427425384521
0.111699074506759644 2.77073407173156738 -1.17884612083435059
0.562582433223724365 4.34035491943359375 -0.652980208396911621
0.219017893075942993 1.37565648555755615 -1.09979593753814697
1.11677646636962891 2.6272885799407959 -1.09404551982879639
-0.0613132044672966003 3.04235196113586426 -1.18441760540008545
0.981566488742828369 4.7323918342590332 -0.162407100200653076
0.263327628374099731 3.11846327781677246 -1.14499986171722412
-1.68974983692169189 3.76324272155761719 -1.13065254688262939
-0.393769055604934692 3.78517580032348633 -1.11956989765167236
0.184708401560783386 1.40230679512023926 -1.13051843643188477
0.0583662986755371094 4.87810277938842773 -0.159928232431411743
-0.879254341125488281 2.61995410919189453 -1.25339555740356445
-0.270037710666656494 2.5142977237701416 -1.14913308620452881
-0.00666594505310058594 2.15727066993713379 -1.12661290168762207
0.678009986877441406 2.20794105529785156 -1.09218811988830566
-0.921312689781188965 4.5535893440246582 -0.27139580249786377
-0.984840154647827148 3.5674285888671875 -0.865538120269775391
-2.98149394989013672 3.7964320182800293 -0.981992363929748535
0.666960418224334717 2.20016837120056152 -1.09662270545959473
1.98130238056182861 4.03130292892456055 -1.00268769264221191
0.0485720857977867126 2.83737802505493164 -1.18210744857788086
0.171508163213729858 2.67279696464538574 -1.16289901733398438
-1.09204816818237305 2.46401214599609375 -1.09253692626953125
1.08650970458984375 2.65046477317810059 -1.06808745861053467
2.64623308181762695 1.56319451332092285 -0.990790843963623047
-0.931904852390289307 3.05168700218200684 -1.0526047945022583
-2.4067990779876709 -0.325639486312866211 -1.10269403457641602
-0.0556996278464794159 2.46003627777099609 -1.14981508255004883
0.754609644412994385 3.52990174293518066 -1.09955239295959473
-0.223179221153259277 2.28544020652770996 -1.15415501594543457
1.09391188621520996 2.63837480545043945 -1.10994493961334229
0.752849102020263672 3.53097248077392578 -1.0922778844833374
0.762873947620391846 4.16650962829589844 -0.893252670764923096
-1.59478616714477539 1.84532427787780762 -0.869722664356231689
-1.08965659141540527 2.45879101753234863 -1.06208348274230957
-0.682779550552368164 4.13700389862060547 -0.166991248726844788
0.263007372617721558 3.8613433837890625 -1.18388593196868896
0.331160366535186768 2.7027580738067627 -1.13406956195831299
-0.999515891075134277 3.74256253242492676 -1.1619870662689209
-0.136485517024993896 3.10841512680053711 -1.15133297443389893
1.45717883110046387 3.06841659545898438 -1.1187063455581665
-1.03074288368225098 4.19581174850463867 -1.05246961116790771
-0.385178685188293457 1.94331979751586914 -1.19638097286224365
1.74901056289672852 3.65006613731384277 -0.641052722930908203
1.0281221866607666 3.23529243469238281 -0.971316218376159668
0.346413165330886841 2.71793389320373535 -1.10504460334777832
-0.393446505069732666 1.9803621768951416 -1.18708813190460205
-0.0419572219252586365 2.58223819732666016 -1.13988065719604492
0.677707970142364502 2.20131444931030273 -1.08473467826843262
0.663608014583587646 4.21418952941894531 -0.858824193477630615
-1.75569307804107666 2.87762808799743652 -1.20423364639282227
1.97569108009338379 2.58178544044494629 -1.07513952255249023
0.606132447719573975 4.59141159057617188 -0.497545152902603149
1.15982961654663086 3.94713640213012695 -0.659155011177062988
0.20881769061088562 1.35171163082122803 -1.1225513219833374
0.751112818717956543 3.54061436653137207 -1.11092126369476318
-0.295358836650848389 3.91741323471069336 -1.11389279365539551
1.52882730960845947 4.19282150268554688 -0.969948410987854004
0.568566322326660156 4.08074569702148438 -1.09587252140045166
-1.64365530014038086 2.31847238540649414 -0.957046926021575928
-1.35854220390319824 3.755828857421875 -0.322508066892623901
1.0449674129486084 3.71294641494750977 -1.11451292037963867
0.209317877888679504 1.35226845741271973 -1.13293278217315674
0.585497140884399414 2.07357239723205566 -1.10779619216918945
-1.49132001399993896 2.32078671455383301 -1.09184229373931885
-0.183994919061660767 2.09614682197570801 -1.19260561466217041
0.163886010646820068 2.39079380035400391 -1.1083977222442627
0.177335292100906372 2.84500026702880859 -1.1702873706817627
-0.151468575000762939 2.59963631629943848 -1.14166712760925293
-1.23108971118927002 3.17522716522216797 -0.588854849338531494
-2.01703071594238281 4.0829014778137207 -1.01404225826263428
0.0164861753582954407 2.86030483245849609 -1.1697922945022583
-1.33912622928619385 2.75161504745483398 -1.13904356956481934
0.110608339309692383 2.72561550140380859 -1.17119872570037842
1.32136297225952148 3.37670135498046875 -0.444403141736984253
0.73505699634552002 2.87455511093139648 -1.16367149353027344
1.10828423500061035 2.6278083324432373 -1.08192634582519531
-1.94626200199127197 3.53539299964904785 -1.10182476043701172
1.3454437255859375 3.2883150577545166 -1.12218666076660156
-1.09732234477996826 2.47346115112304688 -1.10089015960693359
0.648805439472198486 3.72568297386169434 -0.962818264961242676
1.14176809787750244 2.60863995552062988 -1.08901572227478027
0.67661750316619873 2.21576571464538574 -1.10585510730743408
0.988528311252593994 4.73823261260986328 -0.389015644788742065
0.15130750834941864 2.8466346263885498 -1.174530029296875
0.955038905143737793 2.73505067825317383 -1.07648944854736328
-1.09747850894927979 2.46592283248901367 -1.10681748390197754
0.64972376823425293 2.23069238662719727 -1.09796738624572754
-1.55126345157623291 2.48326706886291504 -1.28086662292480469
0.606460630893707275 4.59112834930419922 -0.602709293365478516
0.763558685779571533 3.52138471603393555 -1.10839474201202393
-0.0996358171105384827 2.22435116767883301 -1.18898892402648926
0.397566556930541992 4.82743930816650391 0.151234924793243408
0.669233739376068115 2.21011686325073242 -1.11630439758300781
0.30587497353553772 4.66133975982666016 -0.740164995193481445
0.316084682941436768 4.72520208358764648 0.0940310060977935791
1.34415102005004883 4.1063084602355957 -0.0654272735118865967
-0.84252774715423584 4.01938247680664062 -0.631209611892700195
-1.58339858055114746 2.74444341659545898 -1.2210463285446167
-1.19483256340026855 3.44905734062194824 -1.16678953170776367
-0.287585526704788208 3.92218446731567383 -1.11362075805664062
-0.578853726387023926 2.55820012092590332 -1.1552201509475708
0.456317931413650513 3.75774073600769043 -0.576620817184448242
-0.131799057126045227 2.34380912780761719 -1.16992223262786865
0.669528663158416748 2.19817614555358887 -1.0955815315246582
0.273820698261260986 3.23554778099060059 -1.12221097946166992
0.13235887885093689 2.72891068458557129 -1.17462158203125
1.28729712963104248 4.00115013122558594 -1.06395792961120605
-1.0402381420135498 3.97770357131958008 -0.817003071308135986
0.8041190505027771 4.2492671012878418 -0.843680977821350098
-1.33745312690734863 4.17635774612426758 -1.01450896263122559
-0.248502880334854126 1.99750709533691406 -1.20311379432678223
0.050975799560546875 2.83025860786437988 -1.17075264453887939
1.45894718170166016 4.25808048248291016 -0.969576001167297363
0.419969767332077026 4.61265945434570312 -0.361365735530853271
0.275846213102340698 4.74048566818237305 -0.333413004875183105
-0.283655554056167603 3.92058777809143066 -1.09680855274200439
-1.99570667743682861 4.76098155975341797 -0.866624236106872559
-2.48950481414794922 1.60154259204864502 -0.894946575164794922
0.739490687847137451 4.41206455230712891 -0.521233320236206055
-0.599776268005371094 3.46134757995605469 -0.876541256904602051
-0.216746866703033447 1.38259398937225342 -1.34933578968048096
-1.7398989200592041 3.84041190147399902 -1.02679705619812012
-0.69332575798034668 3.81501650810241699 -0.574318170547485352
1.64599847793579102 3.68843817710876465 -0.246746376156806946
-1.64677870273590088 1.41851127147674561 -1.04634571075439453
0.0561174452304840088 2.72381925582885742 -1.16957104206085205
0.69394153356552124 4.44332122802734375 -0.534109592437744141
0.661186456680297852 3.06610941886901855 -1.12182426452636719
0.196727588772773743 1.36276459693908691 -1.12370908260345459
0.6977425217628479 2.87406826019287109 -1.06291437149047852
-0.424669712781906128 2.0742800235748291 -1.15332329273223877
-2.32016158103942871 2.93644499778747559 -1.02355396747589111
-2.38270306587219238 1.20467352867126465 -1.0577777624130249
0.454512655735015869 2.90557146072387695 -0.891007900238037109
0.685826420783996582 2.22108650207519531 -1.06878077983856201
0.668773412704467773 2.20153594017028809 -1.10315883159637451
-0.0882346108555793762 2.48140454292297363 -1.15769898891448975
1.46341848373413086 2.05259418487548828 -0.991308808326721191
0.323085755109786987 2.75400924682617188 -1.12675213813781738
-0.0121622942388057709 2.54553031921386719 -1.1920241117477417
0.391070276498794556 4.26039838790893555 -0.880462288856506348
-1.38134276866912842 3.6147453784942627 -1.17561471462249756
0.0390920937061309814 2.92376327514648438 -1.10204601287841797
0.862446069717407227 3.95208477973937988 -0.557864904403686523
0.708427250385284424 4.06692075729370117 -0.976647436618804932
0.212576031684875488 3.54554462432861328 -1.17646682262420654
-0.585335969924926758 1.86947619915008545 -1.14036464691162109
0.0609581731259822845 2.92318940162658691 -1.18444657325744629
-0.480163425207138062 3.84041762351989746 -1.05097699165344238
-0.610480189323425293 1.91868102550506592 -1.20893180370330811
-1.10090482234954834 2.45773506164550781 -1.10622918605804443
0.812540709972381592 3.9738471508026123 -0.712275803089141846
0.903288364410400391 4.04676723480224609 -0.459361910820007324
0.66105198860168457 2.20252370834350586 -1.10206079483032227
-0.257242262363433838 2.33231353759765625 -1.14739930629730225
-0.0639518201351165771 4.08815288543701172 -0.77988886833190918
0.751777708530426025 4.06528997421264648 -0.942340552806854248
-0.0272875837981700897 2.39618134498596191 -1.16443336009979248
0.532718181610107422 4.53728866577148438 -0.793299257755279541
1.14156615734100342 2.61898398399353027 -1.11093354225158691
0.763978064060211182 3.53143668174743652 -1.10472571849822998
0.436795830726623535 1.39726352691650391 -1.24275755882263184
-1.63661599159240723 4.15607643127441406 -1.04636025428771973
0.258745133876800537 4.75211620330810547 -0.00805866718292236328
1.12102401256561279 2.6168210506439209 -1.10559630393981934
-0.034299805760383606 2.75390505790710449 -1.1682974100112915
-0.33806687593460083 2.15498495101928711 -1.16898679733276367
0.820802092552185059 2.07990884780883789 -1.07199645042419434
-1.0915452241897583 2.46362113952636719 -1.08054745197296143
0.672978579998016357 2.19978237152099609 -1.10272085666656494
0.760119915008544922 3.53613901138305664 -1.09949839115142822
-0.02924356609582901 2.6411750316619873 -1.15448915958404541
1.57451844215393066 2.85039281845092773 -0.944839298725128174
-0.314405441284179688 2.07702398300170898 -1.19202351570129395
0.0771290063858032227 3.38402986526489258 -1.18587648868560791
0.455540686845779419 3.87470245361328125 -1.03382003307342529
1.08825790882110596 2.64796328544616699 -1.0683443546295166
0.232933998107910156 3.76188325881958008 -0.776775956153869629
1.08568906784057617 2.69687461853027344 -1.07831799983978271
0.998721718788146973 4.80522966384887695 -0.581934750080108643
-0.66423189640045166 3.88542842864990234 -0.858434140682220459
0.296522021293640137 3.0465090274810791 -1.11534404754638672
1.14184975624084473 3.30451369285583496 -1.10849189758300781
-1.8853992223739624 1.40215432643890381 -0.840312302112579346
-0.859697520732879639 3.23531675338745117 -1.12625157833099365
-2.23344707489013672 2.77353715896606445 -1.1352919340133667
-1.37320709228515625 3.34972667694091797 -1.16011977195739746
-0.307635962963104248 0.672391891479492188 -1.2501143217086792
-1.4436572790145874 1.7731400728225708 -1.17229056358337402
-0.531345367431640625 1.9674675464630127 -1.08605217933654785
0.745378732681274414 4.391754150390625 -0.487354457378387451
0.0753908753395080566 2.67737603187561035 -1.15452373027801514
-0.064074784517288208 2.63647198677062988 -1.13570451736450195
0.158232212066650391 2.78191709518432617 -1.1820065975189209
0.0796964764595031738 2.10915756225585938 -1.27213215827941895
-2.58859610557556152 2.25202226638793945 -0.846599459648132324
-1.1853562593460083 1.47502565383911133 -1.03963899612426758
0.765402913093566895 3.51951360702514648 -1.11112654209136963
0.48881259560585022 4.26700592041015625 -0.695877194404602051
-0.117685586214065552 2.49826717376708984 -1.14818215370178223
1.0711514949798584 3.54288363456726074 -1.13989758491516113
0.242880910634994507 3.80770325660705566 -0.961898684501647949
-0.353003412485122681 1.87329304218292236 -1.21388363838195801
-0.294142007827758789 2.0728909969329834 -1.20602619647979736
1.13077330589294434 2.61544156074523926 -1.1081385612487793
0.511102914810180664 3.40819096565246582 -1.07399678230285645
0.415977060794830322 1.99335408210754395 -1.13459217548370361
1.08949005603790283 2.63656902313232422 -1.07693541049957275
0.696499109268188477 4.44646835327148438 -0.543922722339630127
0.20772223174571991 1.34853649139404297 -1.13757967948913574
0.0501156449317932129 2.68483281135559082 -1.14708888530731201
0.731939852237701416 3.5515596866607666 -1.11178719997406006
0.182321980595588684 1.40271151065826416 -1.12937664985656738
-1.13369715213775635 3.65293717384338379 -1.18444204330444336
0.744554996490478516 3.5459742546081543 -1.09579145908355713
-1.19822537899017334 0.357651233673095703 -1.26766681671142578
0.931651115417480469 4.0911564826965332 -0.588727831840515137
