ply
format ascii 1.0
element vertex 256
comment vertices
property float x
property float y
property float z
end_header
1.08780121803283691 3.63482069969177246 -1.1526939868927002
-1.99475061893463135 2.85360860824584961 -0.487737506628036499
0.0835080519318580627 1.36019051074981689 -1.14661848545074463
0.173866450786590576 4.58397817611694336 -0.568435907363891602
1.1360313892364502 4.30353212356567383 -0.14075160026550293
-0.0967701077461242676 2.72853398323059082 -1.17160522937774658
1.00817584991455078 2.55642962455749512 -1.15058279037475586
-1.72458899021148682 2.6911461353302002 -1.16865825653076172
-1.11701083183288574 4.33012056350708008 -0.393550008535385132
-1.14742159843444824 3.68788743019104004 -1.09220790863037109
-0.483659565448760986 2.07459020614624023 -1.16904973983764648
0.767205476760864258 4.27917337417602539 -0.749071478843688965
0.231899499893188477 3.00955820083618164 -1.17451596260070801
0.476839393377304077 4.51039981842041016 -0.535554707050323486
0.997351467609405518 3.79348039627075195 -0.894353270530700684
0.616820871829986572 2.22046947479248047 -1.11852800846099854
-1.32429707050323486 3.57850098609924316 -0.772831380367279053
-0.307503819465637207 3.90111088752746582 -1.08246922492980957
-1.13632988929748535 4.59457159042358398 -0.747490584850311279
-0.0251368880271911621 4.64026546478271484 -0.443861514329910278
0.708689332008361816 3.31429910659790039 -1.23939144611358643
-0.194034069776535034 2.41166472434997559 -1.14100933074951172
-1.29217135906219482 2.94679093360900879 -0.962752342224121094
-1.06733691692352295 2.54587483406066895 -1.02151775360107422
1.20142507553100586 2.98675966262817383 -1.15460109710693359
-0.282776385545730591 4.07823848724365234 -0.93172299861907959
1.1024627685546875 2.61890697479248047 -1.08855307102203369
0.677036166191101074 4.15263652801513672 -1.06330215930938721
0.714675366878509521 3.53979825973510742 -1.07420849800109863
0.258016109466552734 2.69921731948852539 -1.22953593730926514
-0.395171523094177246 2.00925612449645996 -1.24704194068908691
1.02174830436706543 3.51714897155761719 -0.439917504787445068
0.483715951442718506 4.11731576919555664 -0.74638819694519043
-1.46500802040100098 3.08568596839904785 -1.04213106632232666
0.910677194595336914 4.52500438690185547 -0.368500173091888428
-1.43626296520233154 3.82379841804504395 -0.340487301349639893
-0.256615519523620605 2.28217220306396484 -1.21215319633483887
0.558713138103485107 3.99242067337036133 -0.844022989273071289
0.0695984959602355957 2.8052525520324707 -1.1817936897277832
0.532624959945678711 4.52652454376220703 -0.641016244888305664
0.239067137241363525 1.44498896598815918 -1.06612610816955566
1.14488005638122559 2.66570496559143066 -1.09380245208740234
-0.0972630530595779419 3.0758059024810791 -1.17778956890106201
0.734239101409912109 4.88408851623535156 -0.156422346830368042
-0.0262057557702064514 4.1843104362487793 -0.852755308151245117
-1.25065374374389648 4.12187719345092773 -1.02270722389221191
-0.457624495029449463 3.69039416313171387 -1.17324888706207275
0.16381952166557312 1.52218019962310791 -1.16032612323760986
-0.138227060437202454 4.94221782684326172 -0.308527112007141113
-1.1330341100692749 3.49578404426574707 -1.16103661060333252
-0.313321948051452637 2.52327561378479004 -1.16800951957702637
-0.814526200294494629 4.28422069549560547 -0.602043449878692627
0.640198051929473877 2.15459012985229492 -1.10573077201843262
-0.862473070621490479 4.90244007110595703 -0.382544994354248047
-0.941924095153808594 4.50696229934692383 -0.595658421516418457
-1.69304609298706055 4.03521871566772461 -0.635872483253479004
0.678801298141479492 2.2026212215423584 -1.08706653118133545
1.36524415016174316 4.25334882736206055 -0.8718680739402771
-0.00898212194442749023 2.88777256011962891 -1.19278013706207275
0.160887867212295532 2.65425324440002441 -1.21664011478424072
-1.05463659763336182 2.4601285457611084 -1.09487009048461914
1.06883335113525391 2.69783544540405273 -1.061057448387146
1.38199245929718018 3.67529535293579102 -0.498264014720916748
-0.900697529315948486 4.23457860946655273 -0.817691147327423096
-2.03572654724121094 2.54533290863037109 -0.682317972183227539
-0.0798023343086242676 2.49405288696289062 -1.16295278072357178
0.776574254035949707 3.63897371292114258 -1.07381761074066162
-0.266527444124221802 2.30841231346130371 -1.15570831298828125
1.06308579444885254 2.60691595077514648 -1.1218947172164917
0.771496951580047607 3.51917529106140137 -1.09970378875732422
0.818391025066375732 4.23337650299072266 -0.750293254852294922
-1.75912773609161377 3.49792027473449707 -0.433868438005447388
-1.06815338134765625 2.39399337768554688 -1.02887988090515137
-0.799798667430877686 4.74660348892211914 -0.217768043279647827
0.671108007431030273 4.08937740325927734 -1.02011048793792725
0.385627150535583496 2.68070220947265625 -1.16448843479156494
-1.01411592960357666 4.09793376922607422 -1.0996478796005249
0.323324114084243774 4.17235565185546875 -0.739626526832580566
1.36967062950134277 3.10917806625366211 -1.16155946254730225
-0.75073552131652832 4.49992752075195312 -0.990192294120788574
-0.329270213842391968 1.98561763763427734 -1.21914708614349365
0.909129023551940918 4.55294990539550781 -0.476709485054016113
0.74568021297454834 3.99449300765991211 -0.624080240726470947
0.404287576675415039 2.69196820259094238 -1.1119391918182373
-0.348882436752319336 2.03472423553466797 -1.20531117916107178
-0.0871005356311798096 2.5923771858215332 -1.15521836280822754
0.642726778984069824 2.19649243354797363 -1.07799732685089111
0.640364468097686768 4.32407188415527344 -0.671363949775695801
-1.37314093112945557 3.49501442909240723 -1.10379290580749512
1.15366601943969727 3.86128997802734375 -0.646661043167114258
0.472669482231140137 4.6814885139465332 -0.500805258750915527
0.739286363124847412 4.57960319519042969 -0.507742524147033691
0.218234539031982422 1.39356136322021484 -1.09773564338684082
0.588000833988189697 3.43797993659973145 -1.12212538719177246
-0.340050756931304932 3.95001792907714844 -1.14648497104644775
1.20687174797058105 4.27965641021728516 -0.89413917064666748
0.742058038711547852 4.16819953918457031 -0.937916755676269531
-1.70712757110595703 3.48047447204589844 -0.596616744995117188
-1.19465041160583496 4.30451583862304688 -0.340867012739181519
1.06469058990478516 3.9925227165222168 -0.960337042808532715
0.224687471985816956 1.4001622200012207 -1.12035083770751953
0.482003986835479736 1.95406889915466309 -1.10561943054199219
-1.50950455665588379 2.66931509971618652 -1.00025057792663574
-0.177133545279502869 2.09425878524780273 -1.21224379539489746
-0.743933677673339844 4.32348155975341797 -0.589243054389953613
0.16869664192199707 2.88842439651489258 -1.1556469202041626
-0.204006850719451904 2.60414886474609375 -1.16771364212036133
-1.18282759189605713 4.1083979606628418 -0.47585710883140564
-1.27983188629150391 4.31291103363037109 -0.851828098297119141
-0.0395734906196594238 2.91173982620239258 -1.1701052188873291
-1.27142751216888428 3.28485846519470215 -0.99637138843536377
0.0745049342513084412 2.7466576099395752 -1.1708829402923584
0.951820075511932373 4.24730730056762695 -0.340577363967895508
0.564437448978424072 3.88794302940368652 -0.830343067646026611
1.12630891799926758 2.654388427734375 -1.06661808490753174
-1.46287155151367188 3.74073362350463867 -0.980190038681030273
1.44833934307098389 3.91996312141418457 -1.05904889106750488
-1.07481443881988525 2.52849149703979492 -1.12257158756256104
0.678737163543701172 4.09469938278198242 -0.768066167831420898
1.21065664291381836 2.63858175277709961 -1.07442867755889893
0.640109002590179443 2.17447900772094727 -1.15931296348571777
0.781591176986694336 4.83228158950805664 -0.419063091278076172
0.135623514652252197 2.91796755790710449 -1.14033901691436768
0.624523520469665527 3.996063232421875 -0.568121016025543213
-1.08458995819091797 2.43346190452575684 -1.12160611152648926
0.539561808109283447 2.35537576675415039 -1.16049289703369141
-1.29415595531463623 3.06011962890625 -1.22004783153533936
0.559501111507415771 4.66388654708862305 -0.647221803665161133
0.743812978267669678 3.5598301887512207 -1.11606645584106445
-0.0761411339044570923 2.23962044715881348 -1.20531463623046875
0.233067557215690613 5.14121150970458984 -0.107001692056655884
0.691807925701141357 2.31943917274475098 -1.15585529804229736
0.458121329545974731 4.68496274948120117 -0.745550572872161865
0.0653017610311508179 5.01739311218261719 -0.171870976686477661
1.24792587757110596 4.24297904968261719 -0.164184480905532837
-0.901384472846984863 4.50804567337036133 -0.481624066829681396
-1.33477652072906494 3.4541468620300293 -1.19410562515258789
-1.11412334442138672 4.03165626525878906 -1.01584100723266602
-0.312141597270965576 3.90035653114318848 -1.14386904239654541
-0.632421195507049561 2.50106453895568848 -1.13980984687805176
0.336515247821807861 4.56813192367553711 -0.377271473407745361
-0.129519879817962646 2.37967205047607422 -1.17911052703857422
0.838468492031097412 2.32871866226196289 -1.14169228076934814
-0.403510868549346924 4.51562023162841797 -0.760523498058319092
0.106843680143356323 2.73528718948364258 -1.19773590564727783
1.1029059886932373 4.17720985412597656 -0.961912095546722412
-0.988924503326416016 4.60663938522338867 -0.659677863121032715
0.762160003185272217 4.37214469909667969 -0.707823753356933594
-1.11141228675842285 4.27144432067871094 -0.87489926815032959
-0.233891934156417847 1.98644804954528809 -1.23760366439819336
-0.00667493045330047607 2.87471532821655273 -1.18672025203704834
1.12901580333709717 4.39391183853149414 -0.85274958610534668
0.300047039985656738 4.67494583129882812 -0.358052760362625122
-0.0494208335876464844 4.87140703201293945 -0.438500851392745972
-0.36658024787902832 3.94580578804016113 -1.07728028297424316
-1.0426180362701416 4.80531120300292969 -0.672590970993041992
-1.88947510719299316 2.87056636810302734 -0.563166260719299316
0.664922118186950684 4.64212703704833984 -0.496644943952560425
-0.84757530689239502 4.40548515319824219 -0.582834362983703613
-1.0184476375579834 2.97166538238525391 -1.15296638011932373
-1.32319009304046631 3.97450542449951172 -0.874284267425537109
-0.825523018836975098 4.5287017822265625 -0.40157783031463623
1.26709580421447754 3.96954131126403809 -0.199094533920288086
-1.75665760040283203 3.22822713851928711 -0.619392991065979004
-0.0152399241924285889 2.76267147064208984 -1.1615302562713623
0.519281685352325439 4.66364717483520508 -0.51796722412109375
0.708621621131896973 3.02671289443969727 -1.16531968116760254
0.19469238817691803 1.41548919677734375 -1.10537958145141602
0.634244561195373535 2.87692379951477051 -1.08640456199645996
-0.392413198947906494 2.14284133911132812 -1.14516294002532959
-1.54863238334655762 3.66143178939819336 -0.796140909194946289
-1.9247126579284668 2.77279090881347656 -0.784476280212402344
0.372941762208938599 4.46804332733154297 -0.556049585342407227
0.728659570217132568 2.3238670825958252 -1.05584073066711426
0.682540416717529297 2.22636675834655762 -1.10540413856506348
-0.109153881669044495 2.51433849334716797 -1.1766430139541626
1.00946283340454102 3.67202401161193848 -0.514396071434020996
0.357506424188613892 2.75041770935058594 -1.14616179466247559
0.00739169120788574219 2.56294059753417969 -1.21321141719818115
0.452904105186462402 4.58655214309692383 -0.749250650405883789
-1.2785344123840332 3.7451021671295166 -1.11600756645202637
0.352637171745300293 3.99194002151489258 -0.764088988304138184
0.547413051128387451 4.56639480590820312 -0.406380504369735718
0.78413921594619751 4.1527862548828125 -0.820969641208648682
0.69935142993927002 3.91962361335754395 -1.04454696178436279
-0.469805389642715454 2.00367164611816406 -1.1369471549987793
0.0206086635589599609 2.98840212821960449 -1.19455969333648682
-0.548942863941192627 4.30110502243041992 -0.949860751628875732
-0.510261416435241699 2.0299983024597168 -1.24386513233184814
-1.07285666465759277 2.37401723861694336 -1.12476980686187744
0.633764684200286865 4.44565629959106445 -0.609047532081604004
0.682055473327636719 4.62277317047119141 -0.367825925350189209
0.661567270755767822 2.22023105621337891 -1.09893667697906494
-0.294018983840942383 2.37888288497924805 -1.13943624496459961
0.266515523195266724 4.64532661437988281 -0.620790004730224609
0.787135899066925049 4.16780233383178711 -0.782565951347351074
0.0124768614768981934 2.38668298721313477 -1.18452310562133789
0.558670282363891602 4.63375663757324219 -0.734495282173156738
1.20696508884429932 2.67922210693359375 -1.13598155975341797
0.738567709922790527 3.60056924819946289 -1.12923526763916016
-0.897045254707336426 3.84367704391479492 -0.750109076499938965
-0.977476716041564941 4.66071128845214844 -0.848878800868988037
-0.00231703370809555054 5.05088424682617188 -0.309393525123596191
1.14470028877258301 2.55874133110046387 -1.10838890075683594
-0.127327680587768555 2.78733563423156738 -1.1854323148727417
-0.320707798004150391 2.20342230796813965 -1.17751002311706543
0.798696041107177734 3.6893465518951416 -0.705470740795135498
-1.05896425247192383 2.47439670562744141 -1.07181859016418457
0.696209609508514404 2.20112347602844238 -1.10446059703826904
0.739202618598937988 3.49987101554870605 -1.11098074913024902
-0.0876540541648864746 2.65892982482910156 -1.17893016338348389
0.906901538372039795 4.05843544006347656 -0.555145502090454102
-0.298135042190551758 2.12302136421203613 -1.21013867855072021
0.617780447006225586 3.91395926475524902 -1.01526927947998047
0.591225087642669678 4.17015218734741211 -0.914132118225097656
1.07400608062744141 2.69373464584350586 -1.0590587854385376
0.398309826850891113 4.48450088500976562 -0.614010274410247803
0.877234339714050293 2.87749910354614258 -1.14609074592590332
0.718302726745605469 4.81771039962768555 -0.510321319103240967
-0.656442403793334961 4.66405677795410156 -0.65542900562286377
0.342431485652923584 3.07519388198852539 -1.08231925964355469
1.20003700256347656 3.26024651527404785 -1.14942348003387451
-1.79135584831237793 3.15821695327758789 -0.494405388832092285
-0.822961688041687012 4.14275026321411133 -0.971885085105895996
-1.52759444713592529 3.52390098571777344 -0.980936944484710693
-1.28416752815246582 3.59732961654663086 -1.15743052959442139
-0.095359310507774353 3.8092350959777832 -0.733407258987426758
-1.42091524600982666 2.72295331954956055 -1.08652544021606445
-0.910230696201324463 4.23061323165893555 -0.510824084281921387
0.661016404628753662 4.63395833969116211 -0.457633465528488159
0.0248054638504981995 2.69082331657409668 -1.15415465831756592
-0.13453182578086853 2.65556812286376953 -1.1464393138885498
0.137992918491363525 2.81861782073974609 -1.18533587455749512
0.017281796783208847 4.07376241683959961 -0.776780784130096436
-1.90302932262420654 3.46615409851074219 -0.54294586181640625
-1.58974051475524902 3.5374305248260498 -0.440263688564300537
0.729658603668212891 3.55064535140991211 -1.10980534553527832
0.509872674942016602 4.54449939727783203 -0.684861421585083008
-0.157445982098579407 2.5410456657409668 -1.1485908031463623
0.944097757339477539 3.94269871711730957 -0.941751837730407715
0.473044157028198242 4.30466461181640625 -0.736755251884460449
-0.290841579437255859 1.89130568504333496 -1.24350619316101074
-0.278936296701431274 2.1046910285949707 -1.23205924034118652
1.16965138912200928 2.59950804710388184 -1.11801362037658691
0.760109782218933105 3.8401334285736084 -0.910846590995788574
0.487599551677703857 3.86683440208435059 -0.735973119735717773
1.07809293270111084 2.65573334693908691 -1.06212031841278076
0.532572746276855469 4.66524600982666016 -0.533866405487060547
0.201917633414268494 1.37664973735809326 -1.12485039234161377
-0.0132739543914794922 2.71234965324401855 -1.11727237701416016
0.973901748657226562 3.49134206771850586 -1.13347828388214111
0.151621639728546143 1.52593708038330078 -1.1611858606338501
-1.11066889762878418 3.86024379730224609 -1.18229591846466064
0.771323859691619873 3.47111392021179199 -1.11827182769775391
-1.34630393981933594 3.48309707641601562 -0.665175437927246094
0.604350745677947998 4.56199836730957031 -0.465737491846084595
