ply
format ascii 1.0
element vertex 112
comment vertices
property float x
property float y
property float z
end_header
0.178002268075942993 1.36111748218536377 -1.14103281497955322
-0.0351749733090400696 2.69960212707519531 -1.1536567211151123
1.11524474620819092 2.67641067504882812 -1.09862005710601807
-0.580016374588012695 1.9745488166809082 -1.15931987762451172
0.192991197109222412 2.93529605865478516 -1.17431890964508057
0.678857505321502686 2.21108603477478027 -1.09981024265289307
-0.280887365341186523 3.9205327033996582 -1.09906625747680664
0.751823961734771729 3.55082917213439941 -1.11113202571868896
-0.163017451763153076 2.37590622901916504 -1.14178931713104248
-1.0923771858215332 2.48168516159057617 -1.05331730842590332
-0.290058255195617676 3.90526056289672852 -1.12603616714477539
1.10303735733032227 2.62104892730712891 -1.09789597988128662
0.772071361541748047 3.51806998252868652 -1.11752593517303467
0.223998963832855225 2.72971463203430176 -1.15580439567565918
-0.462563216686248779 1.93343722820281982 -1.21570682525634766
-0.209302365779876709 2.26902365684509277 -1.18737781047821045
0.111699074506759644 2.77073407173156738 -1.17884612083435059
0.219017893075942993 1.37565648555755615 -1.09979593753814697
1.11677646636962891 2.6272885799407959 -1.09404551982879639
-0.0613132044672966003 3.04235196113586426 -1.18441760540008545
-0.393769055604934692 3.78517580032348633 -1.11956989765167236
0.184708401560783386 1.40230679512023926 -1.13051843643188477
-0.270037710666656494 2.5142977237701416 -1.14913308620452881
0.678009986877441406 2.20794105529785156 -1.09218811988830566
0.666960418224334717 2.20016837120056152 -1.09662270545959473
0.0485720857977867126 2.83737802505493164 -1.18210744857788086
0.171508163213729858 2.67279696464538574 -1.16289901733398438
-1.09204816818237305 2.46401214599609375 -1.09253692626953125
1.08650970458984375 2.65046477317810059 -1.06808745861053467
-0.0556996278464794159 2.46003627777099609 -1.14981508255004883
0.754609644412994385 3.52990174293518066 -1.09955239295959473
-0.223179221153259277 2.28544020652770996 -1.15415501594543457
1.09391188621520996 2.63837480545043945 -1.10994493961334229
0.752849102020263672 3.53097248077392578 -1.0922778844833374
-1.08965659141540527 2.45879101753234863 -1.06208348274230957
0.331160366535186768 2.7027580738067627 -1.13406956195831299
-0.385178685188293457 1.94331979751586914 -1.19638097286224365
0.346413165330886841 2.71793389320373535 -1.10504460334777832
-0.393446505069732666 1.9803621768951416 -1.18708813190460205
-0.0419572219252586365 2.58223819732666016 -1.13988065719604492
0.677707970142364502 2.20131444931030273 -1.08473467826843262
0.20881769061088562 1.35171163082122803 -1.1225513219833374
0.751112818717956543 3.54061436653137207 -1.11092126369476318
-0.295358836650848389 3.91741323471069336 -1.11389279365539551
0.209317877888679504 1.35226845741271973 -1.13293278217315674
0.585497140884399414 2.07357239723205566 -1.10779619216918945
-0.183994919061660767 2.09614682197570801 -1.19260561466217041
0.177335292100906372 2.84500026702880859 -1.1702873706817627
-0.151468575000762939 2.59963631629943848 -1.14166712760925293
0.0164861753582954407 2.86030483245849609 -1.1697922945022583
0.110608339309692383 2.72561550140380859 -1.17119872570037842
1.10828423500061035 2.6278083324432373 -1.08192634582519531
-1.09732234477996826 2.47346115112304688 -1.10089015960693359
1.14176809787750244 2.60863995552062988 -1.08901572227478027
0.67661750316619873 2.21576571464538574 -1.10585510730743408
0.15130750834941864 2.8466346263885498 -1.174530029296875
-1.09747850894927979 2.46592283248901367 -1.10681748390197754
0.64972376823425293 2.23069238662719727 -1.09796738624572754
0.763558685779571533 3.52138471603393555 -1.10839474201202393
-0.0996358171105384827 2.22435116767883301 -1.18898892402648926
0.669233739376068115 2.21011686325073242 -1.11630439758300781
-0.287585526704788208 3.92218446731567383 -1.11362075805664062
-0.578853726387023926 2.55820012092590332 -1.1552201509475708
-0.131799057126045227 2.34380912780761719 -1.16992223262786865
0.669528663158416748 2.19817614555358887 -1.0955815315246582
0.13235887885093689 2.72891068458557129 -1.17462158203125
-0.248502880334854126 1.99750709533691406 -1.20311379432678223
0.050975799560546875 2.83025860786437988 -1.17075264453887939
-0.283655554056167603 3.92058777809143066 -1.09680855274200439
0.0561174452304840088 2.72381925582885742 -1.16957104206085205
0.196727588772773743 1.36276459693908691 -1.12370908260345459
0.6977425217628479 2.87406826019287109 -1.06291437149047852
-0.424669712781906128 2.0742800235748291 -1.15332329273223877
0.685826420783996582 2.22108650207519531 -1.06878077983856201
0.668773412704467773 2.20153594017028809 -1.10315883159637451
-0.0882346108555793762 2.48140454292297363 -1.15769898891448975
0.323085755109786987 2.75400924682617188 -1.12675213813781738
-0.0121622942388057709 2.54553031921386719 -1.1920241117477417
-0.585335969924926758 1.86947619915008545 -1.14036464691162109
0.0609581731259822845 2.92318940162658691 -1.18444657325744629
-0.610480189323425293 1.91868102550506592 -1.20893180370330811
-1.10090482234954834 2.45773506164550781 -1.10622918605804443
0.66105198860168457 2.20252370834350586 -1.10206079483032227
-0.257242262363433838 2.33231353759765625 -1.14739930629730225
-0.0272875837981700897 2.39618134498596191 -1.16443336009979248
1.14156615734100342 2.61898398399353027 -1.11093354225158691
0.763978064060211182 3.53143668174743652 -1.10472571849822998
1.12102401256561279 2.6168210506439209 -1.10559630393981934
-0.034299805760383606 2.75390505790710449 -1.1682974100112915
-0.33806687593460083 2.15498495101928711 -1.16898679733276367
-1.0915452241897583 2.46362113952636719 -1.08054745197296143
0.672978579998016357 2.19978237152099609 -1.10272085666656494
0.760119915008544922 3.53613901138305664 -1.09949839115142822
-0.02924356609582901 2.6411750316619873 -1.15448915958404541
-0.314405441284179688 2.07702398300170898 -1.19202351570129395
1.08825790882110596 2.64796328544616699 -1.0683443546295166
1.08568906784057617 2.69687461853027344 -1.07831799983978271
0.296522021293640137 3.0465090274810791 -1.11534404754638672
0.0753908753395080566 2.67737603187561035 -1.15452373027801514
-0.064074784517288208 2.63647198677062988 -1.13570451736450195
0.158232212066650391 2.78191709518432617 -1.1820065975189209
0.765402913093566895 3.51951360702514648 -1.11112654209136963
-0.117685586214065552 2.49826717376708984 -1.14818215370178223
-0.353003412485122681 1.87329304218292236 -1.21388363838195801
-0.294142007827758789 2.0728909969329834 -1.20602619647979736
1.13077330589294434 2.61544156074523926 -1.1081385612487793
1.08949005603790283 2.63656902313232422 -1.07693541049957275
0.20772223174571991 1.34853649139404297 -1.13757967948913574
0.0501156449317932129 2.68483281135559082 -1.14708888530731201
0.731939852237701416 3.5515596866607666 -1.11178719997406006
0.182321980595588684 1.40271151065826416 -1.12937664985656738
0.744554996490478516 3.5459742546081543 -1.09579145908355713
